<?xml version="1.0" standalone="no"?>
<!DOCTYPE svg PUBLIC "-//W3C//DTD SVG 20010904//EN"
 "http://www.w3.org/TR/2001/REC-SVG-20010904/DTD/svg10.dtd">
<svg version="1.0" xmlns="http://www.w3.org/2000/svg"
 width="3045.000000pt" height="817.000000pt" viewBox="0 0 3045.000000 817.000000"
 preserveAspectRatio="xMidYMid meet">

<g transform="translate(0.000000,817.000000) scale(0.100000,-0.100000)"
fill="#000000" stroke="none">
<path d="M72 7964 l3 -205 1130 -675 1129 -674 345 0 c293 0 342 2 326 14 -39
26 -2924 1746 -2930 1746 -3 0 -4 -93 -3 -206z"/>
<path d="M1125 8156 c11 -7 569 -341 1240 -741 671 -400 1226 -732 1233 -738
9 -7 12 142 12 742 l0 751 -1252 0 c-1058 0 -1249 -2 -1233 -14z"/>
<path d="M3960 7115 l0 -1055 -1945 0 -1945 0 2 -527 3 -528 1943 -3 1942 -2
0 -1050 0 -1050 530 0 530 0 0 1050 0 1050 1943 2 1942 3 3 528 2 527 -1945 0
-1945 0 0 1055 0 1055 -530 0 -530 0 0 -1055z"/>
<path d="M5370 7425 c0 -437 4 -745 9 -745 5 0 562 330 1238 733 675 403 1237
739 1248 745 15 9 -284 11 -1237 12 l-1258 0 0 -745z"/>
<path d="M6795 7322 c-1371 -819 -1420 -849 -1420 -878 l0 -29 294 -3 294 -2
1461 871 c804 480 1465 876 1471 881 5 4 -146 8 -335 8 l-345 0 -1420 -848z"/>
<path d="M24540 7995 l0 -175 190 0 190 0 0 175 0 175 -190 0 -190 0 0 -175z"/>
<path d="M10094 8146 c-3 -8 -4 -320 -1 -693 4 -726 4 -717 58 -880 40 -122
154 -249 281 -314 119 -61 351 -94 546 -78 356 29 549 173 634 475 22 78 22
91 26 792 l3 712 -203 -2 -203 -3 -5 -690 -5 -690 -24 -59 c-53 -131 -142
-187 -307 -194 -211 -9 -320 60 -370 233 -16 54 -18 129 -22 733 l-3 672 -200
0 c-163 0 -201 -3 -205 -14z"/>
<path d="M12040 7190 l0 -970 198 2 197 3 3 325 2 326 96 94 c91 91 96 94 110
75 7 -11 141 -200 296 -420 l283 -400 258 -3 c141 -1 257 1 257 5 0 5 -185
259 -410 567 -226 307 -410 561 -410 565 0 3 135 141 301 306 165 165 341 344
391 398 l90 97 -259 0 -260 0 -369 -394 -369 -394 -5 392 -5 391 -197 3 -198
2 0 -970z"/>
<path d="M14685 8148 c-3 -7 -4 -443 -3 -968 l3 -955 200 0 200 0 0 965 0 965
-198 3 c-152 2 -199 0 -202 -10z"/>
<path d="M30065 8148 c-3 -7 -4 -443 -3 -968 l3 -955 185 0 185 0 0 965 0 965
-183 3 c-140 2 -184 0 -187 -10z"/>
<path d="M17128 7843 l-3 -198 -97 -3 -98 -3 0 -134 0 -135 100 0 100 0 0
-476 c0 -348 3 -488 12 -518 17 -56 82 -119 145 -140 74 -25 190 -35 324 -29
l119 6 0 138 0 137 -96 4 c-145 5 -134 -35 -134 464 l0 414 115 0 115 0 0 135
0 135 -115 0 -115 0 0 200 0 200 -185 0 -185 0 -2 -197z"/>
<path d="M23690 7840 l0 -200 -100 0 -101 0 3 -132 3 -133 97 -3 97 -3 3 -482
c3 -439 5 -486 21 -522 59 -131 171 -166 495 -157 l92 2 0 140 0 140 -82 1
c-46 1 -94 4 -108 8 -45 12 -49 44 -49 473 l-1 397 118 3 117 3 3 132 3 132
-118 3 -118 3 -3 198 -2 197 -185 0 -185 0 0 -200z"/>
<path d="M25773 7690 c-189 -28 -338 -119 -438 -270 -99 -149 -138 -287 -138
-485 0 -206 43 -349 152 -502 81 -114 172 -178 321 -225 67 -20 94 -23 250
-23 136 0 189 4 240 18 187 50 320 165 410 351 64 134 75 187 75 381 0 147 -3
180 -23 248 -63 219 -205 391 -379 462 -119 48 -319 67 -470 45z m303 -343
c53 -27 103 -76 129 -128 51 -98 70 -303 41 -440 -41 -192 -170 -299 -345
-287 -180 13 -285 131 -313 351 -23 182 15 349 101 440 75 80 120 98 246 94
74 -3 99 -8 141 -30z"/>
<path d="M16105 7676 c-120 -28 -190 -73 -260 -167 l-45 -61 0 101 0 101 -180
0 -180 0 0 -715 0 -715 184 0 185 0 3 458 c3 454 3 457 27 516 56 139 180 206
326 176 70 -14 114 -45 145 -100 l25 -45 5 -500 5 -500 190 0 190 0 3 480 c3
499 -3 627 -37 714 -44 115 -139 201 -270 241 -86 27 -236 34 -316 16z"/>
<path d="M18385 7675 c-114 -25 -243 -94 -322 -173 -156 -156 -211 -327 -200
-629 6 -164 18 -230 61 -327 69 -153 231 -282 431 -343 85 -26 361 -26 454 0
190 52 361 196 421 355 33 87 44 82 -166 82 l-185 0 -62 -64 c-76 -79 -135
-101 -256 -94 -182 11 -299 119 -325 301 l-7 47 522 0 521 0 -5 153 c-5 175
-19 234 -79 357 -78 160 -222 276 -403 326 -85 23 -310 28 -400 9z m310 -316
c99 -37 185 -153 185 -249 l0 -30 -321 0 c-300 0 -320 1 -315 18 3 9 8 31 12
47 23 102 109 197 204 226 53 16 177 10 235 -12z"/>
<path d="M20122 7675 c-35 -8 -83 -25 -106 -39 -49 -29 -120 -102 -161 -168
-17 -27 -33 -48 -37 -48 -5 0 -8 52 -8 115 l0 115 -175 0 -175 0 0 -715 0
-715 185 0 185 0 0 348 c0 478 13 567 93 650 63 66 171 99 297 90 l70 -5 0
193 0 194 -52 -1 c-29 0 -82 -7 -116 -14z"/>
<path d="M21174 7675 c-108 -23 -191 -78 -256 -167 l-43 -59 -3 101 -3 100
-179 0 -180 0 0 -715 0 -715 184 0 185 0 3 448 c4 394 6 453 22 501 47 143
131 205 276 205 85 0 140 -22 183 -74 49 -58 51 -73 54 -592 l4 -488 190 0
190 0 -3 558 c-3 554 -3 557 -27 623 -54 154 -177 249 -363 279 -82 13 -159
12 -234 -5z"/>
<path d="M22560 7679 c-143 -18 -281 -84 -348 -165 -59 -71 -112 -208 -112
-291 l0 -33 179 0 179 0 6 32 c25 128 149 189 322 159 113 -20 154 -59 154
-145 0 -85 -51 -116 -231 -141 -267 -37 -355 -57 -444 -103 -147 -75 -225
-233 -212 -427 13 -176 98 -291 265 -356 84 -33 269 -34 363 -1 76 26 141 65
217 129 56 48 56 48 66 -24 3 -23 10 -53 16 -67 l10 -26 200 0 200 0 0 31 c0
22 -8 37 -26 51 -14 12 -30 32 -36 47 -7 16 -13 209 -17 531 l-6 505 -26 56
c-15 31 -43 72 -63 92 -116 117 -398 179 -656 146z m378 -886 c-3 -96 -8 -128
-27 -171 -29 -64 -85 -115 -158 -142 -186 -70 -326 -5 -326 150 0 84 38 142
114 174 20 8 101 28 181 44 80 17 158 37 174 46 16 8 33 15 38 16 4 0 6 -53 4
-117z"/>
<path d="M27625 7683 c-111 -15 -217 -77 -288 -168 l-42 -55 -3 95 -3 95 -184
0 -185 0 2 -712 3 -713 187 -3 187 -2 3 462 c4 525 3 517 84 607 56 63 114 86
209 86 83 -1 153 -30 186 -77 47 -65 49 -91 49 -600 l0 -478 190 0 190 0 0
543 c0 585 -1 601 -54 705 -79 155 -303 245 -531 215z"/>
<path d="M28982 7680 c-260 -37 -410 -164 -457 -387 -24 -113 -41 -103 165
-103 l179 0 11 38 c15 58 50 104 100 132 40 22 57 25 145 24 161 0 230 -44
230 -145 0 -90 -57 -121 -278 -150 -331 -44 -450 -93 -540 -226 -51 -76 -69
-144 -69 -261 1 -219 109 -359 314 -407 182 -43 378 8 521 135 30 28 57 50 60
50 3 0 8 -21 11 -47 4 -27 12 -63 17 -80 l11 -33 204 0 204 0 0 30 c0 19 -7
33 -20 40 -11 6 -28 23 -38 37 -15 25 -17 73 -22 533 -5 495 -6 506 -28 561
-48 121 -152 195 -332 239 -98 23 -293 33 -388 20z m378 -837 c0 -91 -17 -187
-40 -232 -40 -78 -122 -132 -234 -152 -108 -20 -189 9 -227 82 -26 52 -25 123
4 179 31 62 94 92 273 129 77 16 154 36 170 44 50 27 54 23 54 -50z"/>
<path d="M24540 6935 l0 -715 190 0 190 0 0 715 0 715 -190 0 -190 0 0 -715z"/>
<path d="M7947 6986 l-957 -571 957 -3 c526 -1 958 -1 960 1 2 2 2 261 1 574
l-3 571 -958 -572z"/>
<path d="M70 6980 l0 -570 962 0 c544 0 958 4 952 9 -19 18 -1892 1131 -1903
1131 -8 0 -11 -156 -11 -570z"/>
<path d="M10100 4184 l0 -1265 568 4 c627 4 632 5 799 72 294 119 494 403 569
810 26 138 27 593 1 735 -70 398 -252 683 -520 815 -165 81 -308 95 -954 95
l-463 0 0 -1266z m1063 812 c230 -51 360 -234 398 -558 17 -152 6 -527 -19
-643 -48 -219 -115 -325 -245 -391 -85 -44 -162 -54 -454 -61 l-273 -6 0 843
0 843 263 -6 c178 -4 284 -11 330 -21z"/>
<path d="M17930 4185 l0 -1265 225 0 225 0 0 1265 0 1265 -225 0 -225 0 0
-1265z"/>
<path d="M29820 5251 l-215 -137 -3 -182 -2 -182 -100 0 -100 0 0 -195 0 -195
100 0 100 0 0 -432 c1 -665 14 -802 89 -904 33 -46 104 -94 176 -120 64 -22
241 -30 332 -15 73 13 190 48 197 60 6 9 -29 360 -37 367 -3 3 -35 -4 -72 -15
-80 -25 -125 -26 -165 -6 -61 31 -60 26 -60 570 l0 495 150 0 150 0 0 195 0
195 -150 0 -150 0 0 320 c0 250 -3 320 -12 319 -7 0 -110 -62 -228 -138z"/>
<path d="M12945 4776 c-231 -53 -426 -223 -525 -454 -65 -152 -96 -358 -87
-567 20 -453 215 -747 564 -847 67 -19 102 -23 248 -23 196 0 250 11 384 76
145 71 269 214 341 391 13 32 21 61 17 65 -6 6 -406 83 -433 83 -7 0 -15 -12
-19 -27 -14 -56 -61 -136 -99 -169 -54 -46 -124 -68 -200 -62 -167 14 -295
144 -332 335 -8 41 -14 83 -14 94 0 18 15 19 567 19 l566 0 -7 138 c-18 376
-102 605 -285 775 -76 70 -172 124 -276 155 -101 31 -315 40 -410 18z m298
-376 c66 -25 137 -91 172 -161 28 -54 55 -160 55 -216 l0 -33 -336 0 -337 0 6
68 c22 261 228 421 440 342z"/>
<path d="M16585 4774 c-38 -8 -106 -33 -150 -54 -243 -117 -401 -361 -445
-687 -16 -119 -8 -410 15 -513 78 -351 296 -572 619 -629 88 -16 275 -13 364
5 248 51 435 214 527 458 l25 66 -23 5 c-32 7 -409 75 -418 75 -3 0 -17 -27
-29 -60 -26 -71 -86 -142 -144 -173 -33 -17 -58 -22 -126 -22 -73 0 -93 4
-141 28 -66 32 -127 94 -163 166 -30 57 -56 158 -56 214 l0 37 561 0 562 0 -6
163 c-12 308 -79 520 -217 686 -86 103 -220 188 -356 226 -86 24 -310 29 -399
9z m330 -387 c115 -59 187 -186 197 -347 l3 -45 -335 0 -335 0 3 50 c13 186
103 317 252 366 49 16 162 4 215 -24z"/>
<path d="M19430 4775 c-314 -63 -539 -272 -644 -596 -39 -123 -49 -212 -43
-392 7 -202 33 -315 108 -464 101 -203 266 -336 506 -410 80 -24 103 -27 253
-27 143 -1 175 2 243 22 316 91 540 347 619 707 8 38 13 124 12 235 -1 154 -4
186 -26 270 -49 183 -128 320 -258 443 -124 119 -264 189 -430 216 -87 14
-260 12 -340 -4z m338 -415 c114 -53 198 -166 239 -320 23 -91 23 -320 -1
-410 -51 -193 -155 -308 -310 -347 -129 -31 -258 9 -357 114 -94 99 -139 241
-139 439 0 194 44 332 139 436 113 124 278 158 429 88z"/>
<path d="M21630 4775 c-130 -36 -259 -123 -335 -226 l-45 -61 0 131 0 131
-210 0 -210 0 0 -1265 0 -1265 225 0 225 0 0 458 0 458 68 -67 c82 -80 158
-132 237 -161 50 -19 81 -22 190 -23 155 0 222 19 337 94 220 144 340 383 369
732 20 234 -14 487 -89 650 -86 190 -231 331 -410 396 -86 33 -267 41 -352 18z
m167 -400 c96 -48 175 -160 208 -297 38 -155 28 -417 -20 -560 -91 -268 -382
-341 -565 -141 -59 64 -80 102 -109 197 -44 142 -46 399 -5 536 45 151 145
258 271 290 61 15 160 4 220 -25z"/>
<path d="M23612 4776 c-119 -29 -251 -115 -345 -224 l-37 -43 0 120 0 121
-210 0 -210 0 0 -915 0 -915 224 0 225 0 4 573 c4 619 7 648 60 753 50 97 147
163 252 171 163 13 235 -61 255 -264 5 -54 10 -353 10 -665 l0 -568 224 0 225
0 4 578 c3 424 7 590 17 627 45 175 149 280 290 292 70 7 120 -9 168 -51 86
-76 92 -129 92 -857 l0 -589 226 0 225 0 -4 708 c-4 787 -2 768 -73 903 -93
176 -271 267 -503 257 -123 -6 -189 -27 -293 -94 -63 -40 -188 -157 -188 -176
0 -21 -21 -4 -49 41 -70 108 -180 187 -303 216 -76 18 -213 18 -286 1z"/>
<path d="M26245 4775 c-79 -18 -139 -40 -195 -72 -227 -132 -369 -366 -411
-681 -19 -141 -7 -406 24 -523 93 -356 296 -556 617 -608 92 -15 265 -14 352
3 204 39 362 150 468 326 43 71 94 189 86 197 -4 5 -418 83 -437 83 -4 0 -15
-22 -24 -49 -48 -146 -159 -222 -303 -208 -154 13 -280 139 -318 316 -7 36
-14 81 -14 99 l0 32 559 0 559 0 4 23 c8 49 -12 308 -32 406 -40 198 -110 340
-225 457 -109 111 -240 178 -396 203 -87 15 -241 12 -314 -4z m282 -370 c60
-18 141 -86 177 -149 29 -49 52 -129 62 -208 l6 -58 -336 0 -336 0 0 53 c0 28
6 75 14 102 55 208 226 315 413 260z"/>
<path d="M28445 4784 c-90 -21 -120 -32 -190 -68 -61 -31 -101 -61 -167 -128
l-88 -88 0 125 0 125 -210 0 -210 0 0 -915 0 -915 224 0 225 0 4 573 c5 608 7
637 55 735 49 101 165 179 282 189 83 8 141 -11 200 -64 101 -90 109 -164 110
-915 l0 -518 226 0 226 0 -5 688 c-4 602 -6 696 -21 762 -46 201 -150 321
-337 387 -60 21 -95 27 -189 29 -63 2 -124 1 -135 -2z"/>
<path d="M14076 4728 c4 -13 156 -423 339 -913 l333 -890 205 -3 204 -2 16 42
c45 119 657 1782 657 1785 0 2 -104 2 -232 1 l-231 -3 -165 -475 c-90 -261
-182 -537 -205 -613 -22 -75 -44 -134 -48 -130 -4 5 -26 73 -49 152 -35 119
-291 879 -346 1029 l-16 42 -235 0 -234 0 7 -22z"/>
<path d="M70 4085 c0 -316 2 -575 4 -575 6 0 1900 1131 1910 1141 6 5 -373 9
-952 9 l-962 0 0 -575z"/>
<path d="M1554 3783 l-1470 -878 343 -3 343 -2 1420 847 1420 848 0 33 0 32
-293 0 -294 0 -1469 -877z"/>
<path d="M5980 4646 c16 -14 2917 -1746 2925 -1746 3 0 4 93 3 206 l-3 206
-1129 674 -1129 674 -341 0 c-287 0 -338 -2 -326 -14z"/>
<path d="M6996 4652 c6 -6 1853 -1109 1907 -1139 4 -2 7 255 7 571 l0 576
-962 0 c-529 0 -958 -4 -952 -8z"/>
<path d="M2365 3654 c-676 -404 -1237 -739 -1245 -744 -9 -6 482 -10 1238 -10
l1252 0 0 745 c0 410 -3 745 -7 745 -5 -1 -561 -332 -1238 -736z"/>
<path d="M5370 3646 l0 -746 1252 0 c696 0 1248 4 1242 9 -13 12 -2458 1469
-2478 1477 -15 6 -16 -53 -16 -740z"/>
<path d="M0 900 l0 -560 75 0 75 0 0 234 0 234 223 4 c213 3 224 5 277 29 102
48 165 141 176 260 18 184 -79 318 -250 348 -34 6 -178 11 -319 11 l-257 0 0
-560z m530 419 c94 -20 143 -84 143 -184 0 -100 -49 -164 -143 -184 -28 -6
-125 -11 -215 -11 l-165 0 0 188 c0 104 3 192 7 195 11 11 318 8 373 -4z"/>
<path d="M5840 900 l0 -560 70 0 70 0 0 258 c0 292 7 336 62 389 89 87 237 85
295 -4 16 -24 18 -58 21 -335 l3 -308 70 0 69 0 0 300 c0 332 -6 380 -53 442
-47 61 -96 82 -195 87 -110 4 -161 -11 -223 -66 l-49 -45 0 201 0 201 -70 0
-70 0 0 -560z"/>
<path d="M6707 1453 c-4 -3 -7 -39 -7 -80 l0 -73 70 0 70 0 0 80 0 80 -63 0
c-35 0 -67 -3 -70 -7z"/>
<path d="M12670 901 l0 -561 75 0 75 0 0 235 0 235 182 0 c219 0 292 11 356
54 54 35 107 109 123 169 6 23 9 82 7 132 -5 107 -25 153 -93 213 -81 71 -102
75 -432 80 l-293 4 0 -561z m521 419 c58 -11 91 -31 123 -74 17 -23 21 -42 21
-111 0 -97 -14 -124 -86 -165 -42 -24 -53 -25 -236 -28 l-193 -4 0 196 0 196
159 0 c87 0 183 -5 212 -10z"/>
<path d="M23607 1454 c-4 -4 -7 -256 -7 -561 l0 -553 80 0 80 0 0 234 0 234
218 4 c250 6 289 15 357 82 62 62 88 125 93 222 6 118 -15 182 -81 249 -85 84
-103 88 -442 93 -160 2 -293 0 -298 -4z m583 -154 c57 -32 90 -92 90 -165 0
-77 -33 -134 -95 -165 -47 -24 -61 -25 -237 -28 l-188 -4 0 197 0 197 193 -4
c182 -3 194 -4 237 -28z"/>
<path d="M29010 1380 l0 -80 70 0 70 0 0 80 0 80 -70 0 -70 0 0 -80z"/>
<path d="M2410 1265 l0 -115 -56 0 -55 0 3 -52 3 -53 52 -3 52 -3 3 -302 c3
-282 4 -304 23 -337 27 -46 76 -70 145 -70 94 0 100 4 100 66 l0 54 -49 0
c-81 0 -81 -1 -81 317 l0 273 65 0 65 0 0 55 0 54 -62 3 -63 3 -3 113 -3 112
-69 0 -70 0 0 -115z"/>
<path d="M29380 1265 l0 -115 -56 0 -55 0 3 -52 3 -53 52 -3 51 -3 4 -297 c3
-273 5 -300 23 -337 25 -51 72 -75 145 -75 94 0 100 4 100 66 l0 54 -45 0
c-32 0 -51 6 -65 20 -19 19 -20 33 -20 295 l0 275 65 0 65 0 0 55 0 54 -62 3
-63 3 -3 113 -3 112 -69 0 -70 0 0 -115z"/>
<path d="M10080 755 l0 -565 65 0 65 0 0 565 0 565 -65 0 -65 0 0 -565z"/>
<path d="M21020 755 l0 -565 65 0 65 0 0 565 0 565 -65 0 -65 0 0 -565z"/>
<path d="M5270 1171 c-98 -18 -178 -73 -211 -146 -23 -50 -25 -145 -3 -190 16
-35 67 -75 119 -96 17 -6 95 -28 174 -49 79 -21 155 -47 170 -57 39 -29 48
-73 25 -120 -27 -54 -78 -77 -179 -81 -68 -3 -87 0 -124 20 -52 27 -80 61 -90
109 l-7 34 -64 0 -65 0 3 -30 c10 -107 79 -199 173 -231 64 -22 240 -26 305
-6 62 18 126 66 158 118 23 37 30 61 33 118 4 61 1 77 -19 116 -33 60 -93 90
-272 135 -151 39 -150 38 -185 69 -35 32 -43 61 -27 101 27 64 134 91 239 61
60 -17 94 -50 104 -98 5 -27 8 -28 69 -28 l64 0 0 32 c0 77 -80 173 -169 202
-59 20 -163 27 -221 17z"/>
<path d="M14409 1166 c-150 -40 -246 -165 -271 -350 -30 -221 49 -401 205
-471 54 -25 74 -29 157 -28 158 0 255 52 318 171 45 84 62 160 62 278 0 118
-20 196 -68 266 -79 115 -255 174 -403 134z m176 -117 c62 -17 118 -82 140
-162 23 -84 17 -215 -14 -302 -54 -156 -232 -206 -351 -99 -96 87 -116 298
-43 452 48 101 150 143 268 111z"/>
<path d="M17498 1170 c-66 -12 -147 -58 -180 -104 -58 -81 -63 -189 -11 -254
41 -50 100 -77 261 -119 151 -39 183 -52 206 -85 58 -83 -34 -177 -174 -178
-126 0 -189 37 -212 124 l-12 46 -63 0 c-62 0 -63 0 -63 -28 0 -88 73 -193
162 -233 45 -20 70 -23 168 -24 176 0 268 44 321 152 29 59 31 161 6 210 -34
64 -83 89 -262 134 -142 35 -190 54 -216 87 -29 38 -24 79 14 117 38 38 91 51
172 40 69 -8 115 -39 140 -92 l20 -42 64 -1 64 0 -7 43 c-15 90 -92 172 -186
197 -55 14 -160 20 -212 10z"/>
<path d="M18280 1171 c-143 -26 -230 -119 -230 -245 0 -132 63 -177 348 -246
113 -27 154 -52 166 -102 7 -29 5 -43 -10 -69 -30 -51 -75 -72 -166 -77 -127
-7 -196 29 -222 119 l-13 44 -64 0 -64 0 3 -35 c4 -52 59 -156 96 -185 60 -46
111 -58 241 -59 116 -1 123 0 187 32 102 50 148 123 148 234 -1 131 -51 170
-303 236 -172 45 -207 68 -207 134 0 73 79 116 193 104 88 -9 140 -43 156
-102 7 -28 10 -29 75 -32 l67 -3 -7 38 c-15 86 -79 162 -159 192 -61 23 -172
33 -235 22z"/>
<path d="M25343 1165 c-171 -48 -273 -209 -273 -430 0 -295 193 -467 459 -411
178 38 277 174 289 398 11 218 -53 348 -206 420 -76 37 -188 46 -269 23z m178
-116 c96 -32 146 -114 156 -251 6 -91 -12 -189 -46 -257 -77 -151 -302 -146
-381 8 -65 128 -43 354 44 448 51 56 148 78 227 52z"/>
<path d="M26180 1167 c-74 -17 -145 -59 -175 -106 -36 -53 -52 -138 -37 -189
26 -88 87 -126 283 -176 207 -53 229 -66 229 -135 0 -78 -76 -130 -189 -131
-122 0 -191 41 -212 126 l-11 44 -66 0 -65 0 6 -45 c12 -86 68 -170 138 -205
83 -43 257 -50 360 -15 26 9 65 32 88 52 131 112 114 319 -30 377 -23 9 -102
32 -175 51 -184 47 -210 62 -220 127 -15 87 112 143 241 107 59 -17 93 -45
106 -90 l12 -39 64 0 c62 0 63 0 63 28 0 42 -47 128 -88 162 -66 55 -215 81
-322 57z"/>
<path d="M1195 1157 c-58 -19 -86 -35 -123 -70 -32 -31 -62 -105 -62 -154 0
-22 4 -23 64 -23 l64 0 7 37 c14 75 97 120 206 110 72 -6 126 -32 144 -68 22
-41 19 -105 -4 -128 -22 -22 -29 -23 -202 -46 -140 -18 -193 -35 -243 -77 -53
-44 -76 -97 -76 -182 0 -87 32 -152 98 -196 55 -37 92 -44 192 -38 87 5 167
38 216 89 35 36 40 36 48 -1 3 -17 18 -42 33 -56 24 -22 34 -25 97 -22 l71 3
3 52 3 53 -35 0 c-19 0 -38 6 -43 13 -4 6 -10 141 -13 298 l-5 286 -27 36
c-16 20 -53 48 -85 64 -52 25 -70 28 -173 30 -74 2 -129 -2 -155 -10z m315
-469 c0 -121 -38 -187 -130 -227 -74 -32 -132 -37 -186 -16 -78 30 -107 112
-64 182 27 45 65 62 188 79 59 9 123 22 142 29 19 7 38 13 43 14 4 0 7 -27 7
-61z"/>
<path d="M2129 1150 c-20 -11 -57 -42 -83 -71 l-46 -51 0 61 0 61 -65 0 -65 0
0 -405 0 -405 70 0 70 0 0 263 c0 232 3 267 19 302 34 77 113 125 204 125 l37
0 0 70 0 70 -52 0 c-32 -1 -67 -8 -89 -20z"/>
<path d="M3093 1154 c-23 -9 -65 -36 -93 -61 l-50 -45 0 51 0 51 -65 0 -65 0
0 -405 0 -405 64 0 64 0 4 268 c3 244 5 271 24 312 65 142 270 178 339 60 19
-33 20 -55 23 -337 l3 -303 70 0 69 0 0 298 c0 329 -8 388 -58 451 -46 57 -94
76 -197 78 -61 2 -104 -3 -132 -13z"/>
<path d="M3890 1153 c-180 -63 -275 -254 -248 -498 16 -146 91 -256 211 -311
54 -24 74 -28 152 -27 67 0 104 6 148 22 93 36 178 134 202 234 l7 27 -66 0
-66 0 -21 -43 c-28 -56 -46 -75 -92 -99 -112 -56 -245 -20 -296 81 -22 43 -45
146 -36 161 4 6 111 10 296 10 l289 0 0 68 c-1 243 -135 392 -355 391 -46 0
-99 -7 -125 -16z m213 -117 c46 -19 94 -78 112 -138 28 -95 45 -88 -205 -88
l-220 0 0 30 c0 70 56 156 122 189 50 25 141 28 191 7z"/>
<path d="M4817 1155 c-42 -21 -75 -50 -108 -91 l-29 -37 0 62 0 61 -65 0 -65
0 0 -405 0 -405 70 0 70 0 0 263 c0 234 2 266 19 302 36 77 107 124 189 125
l42 0 0 70 0 70 -47 0 c-27 0 -61 -7 -76 -15z"/>
<path d="M7294 1146 c-28 -13 -67 -41 -87 -61 l-37 -38 0 51 0 52 -65 0 -65 0
0 -565 0 -565 65 0 65 0 0 200 c0 110 4 200 8 200 5 0 21 -14 38 -31 47 -51
97 -69 195 -69 76 0 93 3 148 31 111 56 173 162 190 328 24 229 -43 391 -192
466 -71 35 -189 36 -263 1z m220 -129 c20 -16 48 -52 63 -80 24 -45 28 -67 31
-163 5 -136 -11 -200 -64 -262 -58 -68 -120 -90 -202 -71 -65 14 -110 52 -141
118 -23 50 -26 68 -26 171 0 133 18 200 68 257 45 51 80 64 163 61 60 -3 77
-8 108 -31z"/>
<path d="M13919 1142 c-25 -16 -61 -49 -82 -73 l-37 -44 0 63 0 62 -65 0 -65
0 0 -405 0 -405 70 0 70 0 0 258 c0 249 1 259 24 307 38 83 105 125 199 125
l37 0 0 70 0 70 -53 0 c-41 0 -63 -6 -98 -28z"/>
<path d="M15244 1156 c-111 -36 -201 -143 -230 -273 -20 -93 -15 -272 11 -345
23 -65 94 -141 163 -175 49 -24 69 -28 142 -28 73 0 93 4 142 28 32 16 66 39
77 53 10 13 22 24 26 24 9 0 -3 -131 -17 -185 -21 -82 -78 -128 -176 -141
-100 -13 -184 26 -211 99 -10 26 -13 27 -81 27 l-69 0 6 -32 c15 -81 67 -142
153 -182 38 -18 64 -21 165 -21 108 0 125 3 175 26 102 48 159 129 179 259 6
37 11 235 11 463 l0 397 -65 0 -65 0 0 -47 0 -47 -32 31 c-76 71 -207 101
-304 69z m179 -117 c91 -25 147 -114 155 -249 12 -210 -74 -340 -226 -343 -84
-2 -141 33 -179 110 -26 54 -28 66 -28 183 0 109 3 132 23 176 49 109 143 154
255 123z"/>
<path d="M16183 1154 c-18 -9 -55 -40 -83 -69 l-50 -54 0 60 0 59 -65 0 -65 0
0 -405 0 -405 70 0 70 0 0 260 c0 213 3 267 16 298 32 77 111 131 192 132 l42
0 0 70 0 70 -47 0 c-27 0 -62 -8 -80 -16z"/>
<path d="M16660 1161 c-132 -43 -230 -156 -261 -302 -17 -80 -6 -252 20 -321
30 -79 97 -150 179 -190 60 -30 73 -33 156 -32 158 2 264 63 325 186 46 92 44
98 -33 98 l-64 0 -22 -45 c-50 -104 -167 -149 -283 -109 -77 26 -131 111 -139
219 l-3 40 294 3 294 2 -5 98 c-9 170 -63 263 -186 324 -59 29 -77 33 -157 35
-49 1 -101 -1 -115 -6z m187 -122 c63 -24 118 -102 130 -184 l6 -45 -222 0
-221 0 0 33 c1 68 67 163 135 193 37 16 133 18 172 3z"/>
<path d="M24869 1150 c-20 -11 -57 -42 -83 -71 l-46 -51 0 61 0 61 -65 0 -65
0 0 -405 0 -405 70 0 70 0 0 263 c0 232 3 267 19 302 34 77 113 125 204 125
l37 0 0 70 0 70 -52 0 c-32 -1 -67 -8 -89 -20z"/>
<path d="M27035 1158 c-42 -15 -111 -64 -130 -90 -14 -21 -15 -20 -15 30 l0
52 -65 0 -65 0 0 -565 0 -565 65 0 65 0 0 200 c0 110 3 200 6 200 3 0 15 -11
25 -24 11 -14 44 -37 74 -52 50 -24 63 -26 148 -22 79 3 100 8 139 31 95 55
156 148 179 272 17 91 6 268 -20 336 -26 68 -86 140 -149 176 -39 23 -59 28
-137 30 -49 1 -103 -3 -120 -9z m176 -128 c50 -26 94 -94 110 -169 17 -83 7
-224 -21 -289 -82 -190 -336 -179 -394 17 -35 118 -13 316 43 388 58 73 175
97 262 53z"/>
<path d="M27844 1156 c-178 -56 -284 -264 -254 -499 31 -244 214 -381 445
-334 99 21 169 65 217 139 31 48 58 107 58 129 0 5 -29 9 -64 9 l-63 0 -34
-57 c-39 -67 -91 -101 -166 -109 -133 -16 -238 79 -246 223 l-2 48 294 3 294
2 -6 93 c-6 104 -26 173 -68 233 -34 50 -105 99 -173 119 -60 18 -176 18 -232
1z m215 -126 c52 -26 87 -71 106 -132 28 -96 45 -89 -207 -86 l-223 3 3 30 c5
41 38 114 65 144 55 60 180 80 256 41z"/>
<path d="M28772 1159 c-35 -14 -73 -45 -109 -91 l-33 -41 0 62 0 61 -65 0 -65
0 0 -405 0 -405 70 0 70 0 0 268 0 268 33 54 c38 63 85 92 164 98 l53 4 0 69
0 69 -47 -1 c-27 0 -59 -4 -71 -10z"/>
<path d="M6700 745 l0 -405 70 0 70 0 0 405 0 405 -70 0 -70 0 0 -405z"/>
<path d="M29010 745 l0 -405 70 0 70 0 0 405 0 405 -70 0 -70 0 0 -405z"/>
<path d="M29710 1145 c0 -4 65 -188 145 -410 80 -222 145 -410 145 -418 0 -32
-68 -165 -91 -177 -14 -8 -41 -10 -76 -6 l-53 6 0 -59 c0 -68 3 -71 89 -71 82
0 137 31 177 97 42 71 149 341 287 726 l114 317 -76 0 -76 0 -104 -312 c-57
-172 -107 -316 -110 -321 -4 -4 -54 136 -112 310 l-105 318 -77 3 c-42 2 -77
0 -77 -3z"/>
</g>
</svg>
