<svg width="244" height="72" viewBox="0 0 244 72" fill="none" xmlns="http://www.w3.org/2000/svg">
<g clip-path="url(#clip0_3472_24671)">
<path d="M93.7942 36.2786H92.9965V42.919H89.9023V26.8047H92.9965V33.4451H93.7281L99.1492 26.8047H102.98L96.0551 34.8644L103.376 42.9241H99.4236L93.7942 36.2837V36.2786Z" fill="#11698E"/>
<path d="M116.287 39.3251H109.255L107.914 42.9139H104.652L110.952 26.7793H114.57L120.911 42.9139H117.623L116.282 39.3251H116.287ZM115.2 36.4205L112.751 29.9069L110.322 36.4205H115.2Z" fill="#11698E"/>
<path d="M133.551 42.9139L130.599 37.4647C130.35 37.485 130.116 37.485 129.867 37.485H126.936V42.9139H123.842V26.7793H130.096C134.994 26.7793 136.752 28.9083 136.752 32.1423C136.752 34.5653 135.665 36.2127 133.404 36.9832L136.919 42.9139H133.551ZM129.867 34.8339C132.108 34.8339 133.592 34.2307 133.592 32.1828C133.592 30.135 132.23 29.5115 130.096 29.5115H126.936V34.8339H129.867Z" fill="#11698E"/>
<path d="M150.205 39.3251H143.173L141.832 42.9139H138.57L144.87 26.7793H148.488L154.829 42.9139H151.541L150.2 39.3251H150.205ZM149.118 36.4205L146.669 29.9069L144.24 36.4205H149.118Z" fill="#11698E"/>
<path d="M172.656 26.7793V42.9139H169.664L160.773 31.681V42.9139H157.76V26.7793H160.773L169.664 38.0527V26.7793H172.656Z" fill="#11698E"/>
<path d="M191.843 34.8601C191.843 39.5134 188.749 42.9198 184.227 42.9198H176.926V26.7852H184.227C188.769 26.7852 191.843 30.1053 191.843 34.8651V34.8601ZM188.622 34.8601C188.622 31.8744 186.97 29.639 184.227 29.639H180.02V40.0558H184.227C186.991 40.0558 188.622 37.8001 188.622 34.8601Z" fill="#11698E"/>
<path d="M205.672 39.3251H198.64L197.299 42.9139H194.037L200.337 26.7793H203.955L210.295 42.9139H207.008L205.667 39.3251H205.672ZM204.585 36.4205L202.136 29.9069L199.707 36.4205H204.585Z" fill="#11698E"/>
<path d="M223.494 39.3251H216.462L215.121 42.9139H211.859L218.159 26.7793H221.777L228.118 42.9139H224.83L223.489 39.3251H223.494ZM222.407 36.4205L219.958 29.9069L217.529 36.4205H222.407Z" fill="#11698E"/>
<path d="M244 28.5344L234.753 40.1829L244 40.0157V42.9151H230.379V41.2018L239.626 29.533L230.379 29.7002V26.8008H244V28.5344Z" fill="#11698E"/>
<path d="M44.6807 39.2231C44.6552 33.2366 44.6908 27.2552 44.8737 21.2788C44.894 21.2687 44.9144 21.2636 44.9347 21.2535C45.4224 21.806 45.9254 22.3433 46.403 22.906C49.0348 25.998 51.3363 29.3233 53.5109 32.7449C54.6083 34.4633 55.6549 36.2171 56.7219 37.9558C56.7625 38.0166 56.793 38.0825 56.8387 38.1636C55.4771 39.6742 53.9275 40.9668 52.256 42.1225C51.4024 40.5461 50.5539 38.9848 49.6953 37.4033C48.6588 37.9102 48.0034 38.6553 47.7037 39.6945C47.4344 40.6221 47.5614 41.5295 47.9221 42.4064C48.1711 43.0147 48.4607 43.6027 48.7452 44.2262C45.4072 45.9648 41.8761 47.1915 38.2129 48.1343C36.9072 44.4492 34.9562 41.1037 32.8426 37.7987C32.5378 38.0471 32.2533 38.265 31.984 38.4982C31.1813 39.1977 30.4395 39.9479 29.9721 40.9212C29.779 41.3216 29.6063 41.7373 29.6063 42.1986C29.6063 42.523 29.7333 42.7764 30.0127 42.9234C30.2769 43.0603 30.5563 43.1718 30.8409 43.263C31.3337 43.4202 31.7046 43.7041 31.9789 44.1603C33.0611 45.975 34.184 47.7643 35.2407 49.5942C35.9368 50.8057 36.5007 52.0882 36.8056 53.4619C36.8869 53.8218 36.9275 54.1969 36.9529 54.5669C36.9783 54.9674 36.8005 55.307 36.5668 55.6213C36.1502 56.1839 35.6065 56.6148 35.0375 57.0051C33.5133 58.0493 31.8468 58.8198 30.155 59.5447C29.3319 59.8944 28.4987 60.2138 27.6654 60.5382C27.5587 60.5787 27.4266 60.599 27.3199 60.5686C24.8965 59.9603 22.5187 59.2152 20.2578 58.1355C18.3424 57.218 16.5387 56.1231 14.857 54.8305C14.791 54.7798 14.7351 54.7291 14.6538 54.6581C14.9586 54.3388 15.2533 54.0296 15.5429 53.7153C17.2907 51.8347 18.9114 49.8527 20.2019 47.6274C20.964 46.3146 21.5788 44.946 21.8785 43.4455C22.1173 42.229 21.9801 41.0378 21.6855 39.8567C21.0656 37.383 20.0241 35.0817 18.8657 32.826C18.3068 31.7362 17.6819 30.6767 17.0874 29.6072C17.0468 29.5311 16.9909 29.4602 16.935 29.374C16.4168 29.5768 16.0154 29.9164 15.6852 30.3371C14.8621 31.3864 14.7148 32.5725 15.1771 33.784C15.5429 34.7421 16.0307 35.6596 16.5032 36.572C17.2856 38.0775 18.129 39.5525 18.8809 41.0732C19.2569 41.8387 19.516 42.67 19.7802 43.481C20.0749 44.3934 19.9072 45.2552 19.4246 46.0763C18.9216 46.9229 18.2916 47.6629 17.6057 48.3625C16.2593 49.7311 14.7808 50.9375 13.221 52.0476C12.9314 52.2554 12.6114 52.4126 12.2659 52.6153C11.6765 51.9767 11.077 51.3684 10.5283 50.7195C8.39438 48.2205 6.61106 45.4934 5.35613 42.4419C4.58387 40.5613 4.08596 38.6148 3.85733 36.5973C3.47628 33.2518 3.89798 29.9924 4.91411 26.799C5.75243 24.1529 6.97687 21.6995 8.75511 19.5452C10.4063 17.543 12.4183 16.002 14.7198 14.8158C16.8334 13.7311 19.0435 12.9454 21.3959 12.5804C22.412 12.4233 23.4485 12.3118 24.4798 12.3016C31.0593 12.2509 36.831 14.4813 41.9574 18.5213C42.3537 18.8356 42.501 19.1448 42.496 19.6517C42.4807 21.4461 42.5112 23.2405 42.5518 25.04C42.5874 26.6874 42.6382 28.3349 42.6992 29.9823C42.7449 31.1481 42.811 32.3191 42.877 33.485C42.9126 34.1389 42.9685 34.7978 43.0193 35.4517C43.0243 35.5278 43.0548 35.6089 43.0904 35.6798C43.7001 36.7899 44.2437 37.9355 44.6298 39.142C44.64 39.1774 44.6654 39.2028 44.6857 39.2332L44.6807 39.2231ZM25.496 14.1974C25.496 14.1974 25.4503 14.2329 25.4248 14.2481C25.4248 14.2937 25.4147 14.3444 25.4147 14.3901C25.369 16.3619 25.3334 18.3388 25.2826 20.3106C25.2419 22.0392 25.1708 23.7677 25.1403 25.5013C25.1098 27.1893 25.1098 28.8823 25.1149 30.5703C25.1149 32.1619 25.1352 33.7536 25.1657 35.3453C25.1861 36.6936 25.2115 38.042 25.2623 39.3903C25.3486 41.5092 25.4503 43.6229 25.5671 45.7418C25.5925 46.1625 25.5569 46.5883 25.7907 46.9938C26.3597 47.9823 26.8271 49.0164 27.1878 50.0961C27.2183 50.1873 27.2539 50.2785 27.2895 50.3698C27.3403 50.2937 27.3403 50.2329 27.3403 50.167C27.3403 49.3357 27.3301 48.5095 27.3352 47.6781C27.3453 44.5962 27.3555 41.5193 27.3708 38.4374C27.3708 37.5199 27.3911 36.6024 27.4165 35.6849C27.4825 33.4951 27.5435 31.3002 27.6349 29.1104C27.6959 27.6657 27.7975 26.2262 27.8839 24.7815C27.9754 23.2152 28.0871 21.6539 28.1633 20.0876C28.2192 18.942 28.2294 17.7964 28.265 16.6559C28.265 16.4988 28.2091 16.4126 28.082 16.3213C27.3962 15.8144 26.7153 15.2974 26.0498 14.7702C25.8465 14.608 25.684 14.3901 25.5011 14.1974H25.496ZM13.724 19.1498C12.6469 20.118 11.6003 21.0659 10.5334 22.029C11.5038 23.1037 12.4539 24.1529 13.4243 25.2225C14.4963 24.2543 15.548 23.3013 16.6149 22.3332C15.6445 21.2636 14.6944 20.2194 13.724 19.1498ZM34.8241 33.8601C35.8961 32.8919 36.9478 31.9389 38.0148 30.9758C37.0444 29.9062 36.0943 28.857 35.129 27.7925C34.0519 28.7607 33.0002 29.7035 31.9332 30.6666C32.9036 31.7412 33.8537 32.7905 34.8241 33.8601Z" fill="#07638B"/>
<path d="M60.2729 33.5771C59.7749 32.7711 59.2974 31.9855 58.8096 31.2099C56.7367 27.9353 54.4961 24.7824 51.8948 21.8982C49.9133 19.6931 47.7337 17.7061 45.2848 16.0283C45.2035 15.9725 45.1375 15.8306 45.1426 15.7343C45.2035 14.6495 45.2848 13.5647 45.356 12.48C45.4118 11.5878 45.483 10.6957 45.5135 9.80353C45.5643 8.38421 45.5846 6.95982 45.6252 5.54051C45.6303 5.35295 45.5694 5.25157 45.4068 5.15526C44.5278 4.63315 43.7454 3.98432 43.0392 3.24425C42.9833 3.18849 42.9274 3.1378 42.8309 3.04656C42.7343 6.82803 42.6378 10.5537 42.5362 14.3301C42.2161 14.1679 41.9468 14.026 41.6725 13.8841C38.7155 12.3684 35.5858 11.3698 32.324 10.7565C30.2866 10.3713 28.234 10.1533 26.1611 10.1888C20.0338 10.2952 14.5314 12.1657 9.78607 16.084C6.79354 18.5577 4.67998 21.6751 3.26247 25.269C2.46988 27.2814 1.92116 29.3648 1.54519 31.4938C1.17938 33.5467 1.00156 35.6148 1.07269 37.6982C1.29116 44.1561 3.30311 49.9297 7.65726 54.8061C7.71823 54.872 7.77412 54.9429 7.85541 55.0342C7.26097 55.3687 6.67669 55.6931 6.06192 56.0328C5.66563 55.3941 5.26426 54.7706 4.89337 54.137C2.85093 50.6596 1.42834 46.9491 0.671315 42.9953C0.407119 41.6267 0.219134 40.2378 0.11752 38.8489C0.00574472 37.3535 -0.0298201 35.843 0.0260675 34.3476C0.137843 31.2048 0.696718 28.1279 1.65189 25.1271C3.31327 19.9212 6.02128 15.3237 9.76574 11.3394C12.6008 8.32338 15.8626 5.87506 19.5461 3.97419C22.437 2.4839 25.4803 1.40927 28.6659 0.750305C30.2663 0.415751 31.8871 0.197785 33.518 0.0862666C35.0981 -0.0252513 36.6781 -0.0404582 38.2532 0.0558527C41.8401 0.273819 45.3306 0.973341 48.6838 2.26087C57.3972 5.60133 63.9056 11.4205 68.2394 19.6678C68.3308 19.8401 68.3359 19.9922 68.2648 20.1696C67.5078 22.0857 66.5119 23.8852 65.4602 25.6492C63.87 28.3206 62.173 30.9159 60.3694 33.4453C60.344 33.4757 60.3186 33.5061 60.2779 33.567L60.2729 33.5771Z" fill="#07638B"/>
<path d="M8.93164 59.7186C9.63278 59.1611 10.3237 58.6085 11.03 58.0459C13.8243 60.2965 16.9693 61.9034 20.4191 63.0034C19.1845 63.3633 17.9499 63.7282 16.6644 64.1033C17.0303 64.5088 17.3554 64.889 17.7009 65.2489C18.6662 66.2627 19.6824 67.2258 20.8814 67.971C21.4301 68.3106 22.0042 68.6198 22.6647 68.6401C22.9645 68.6502 23.2998 68.6147 23.5589 68.4829C27.5219 66.4199 31.2206 63.9817 34.3808 60.7983C35.9253 59.2422 37.2514 57.5238 38.1202 55.486C38.6435 54.2593 38.9179 52.987 38.9077 51.6539C38.9077 51.4967 38.9839 51.4663 39.0957 51.4258C42.0526 50.3309 44.9486 49.0788 47.7989 47.7254C48.4746 47.4061 49.1199 47.0259 49.7804 46.6711C49.8667 46.6254 49.948 46.5798 50.0547 46.519C50.3291 47.0208 50.5933 47.5024 50.8524 47.989C51.4672 49.1498 52.0819 50.3207 52.468 51.5778C52.6357 52.1202 52.7272 52.6981 52.7881 53.2658C52.8593 53.8792 52.59 54.4266 52.2902 54.9437C51.6653 56.0335 50.8168 56.9459 49.9226 57.8127C48.6525 59.0445 47.301 60.1799 45.8378 61.1785C45.0299 61.731 44.1408 62.172 43.2822 62.6536C39.7104 64.6457 36.1336 66.6277 32.5568 68.6147C32.4959 68.6502 32.4349 68.6908 32.3333 68.7516C32.4349 68.8023 32.506 68.8428 32.5822 68.8732C34.1674 69.5018 35.7882 69.9834 37.48 70.2216C38.1812 70.323 38.8975 70.3787 39.5885 70.1861C39.9391 70.0847 40.2896 69.9225 40.5996 69.7198C42.1847 68.6705 43.6175 67.4235 45.0096 66.1411C47.3061 64.0273 49.4552 61.7716 51.3198 59.2624C52.5697 57.5795 53.6773 55.8155 54.3987 53.8335C54.7594 52.8451 54.9932 51.8262 54.983 50.7668C54.9728 49.7125 54.7645 48.6834 54.4444 47.6849C54.1294 46.6964 53.7585 45.7282 53.408 44.7499C53.3775 44.6688 53.347 44.5877 53.3064 44.4914C55.049 43.3103 56.7104 42.0329 58.2651 40.5781C58.4836 40.9583 58.7021 41.3233 58.9104 41.6882C61.4405 46.1287 63.9656 50.5691 66.5009 55.0045C66.5924 55.1616 66.5619 55.263 66.4755 55.3999C65.185 57.4021 63.7167 59.2624 62.0604 60.9758C59.1492 63.9867 55.8162 66.4249 52.0616 68.2802C49.0691 69.7553 45.9343 70.7893 42.6522 71.3976C39.9746 71.8944 37.2768 72.0769 34.5586 71.9653C29.6507 71.7626 24.9663 70.6119 20.5258 68.4931C16.7254 66.6784 13.3518 64.2757 10.3949 61.29C9.91221 60.8034 9.46003 60.2914 8.99769 59.7947C8.97737 59.7744 8.96212 59.744 8.9418 59.7186H8.93164Z" fill="#07638B"/>
<path d="M69.5454 49.4885C69.1491 48.8144 68.7935 48.2061 68.4378 47.5978C66.3192 43.9633 64.2006 40.3289 62.0717 36.6944C61.9803 36.5423 61.9854 36.446 62.0972 36.3142C65.0287 32.7913 67.757 29.1163 70.3329 25.3297C70.3685 25.279 70.4092 25.2283 70.4803 25.127C72.9597 33.3641 72.665 41.439 69.5353 49.4885H69.5454Z" fill="#07638B"/>
</g>
<defs>
<clipPath id="clip0_3472_24671">
<rect width="244" height="72" fill="white"/>
</clipPath>
</defs>
</svg>
