<?xml version="1.0" encoding="UTF-8" standalone="no"?>
<!-- Created with Inkscape (http://www.inkscape.org/) -->

<svg
   version="1.1"
   id="svg1"
   width="425.86667"
   height="114.29333"
   viewBox="0 0 425.86667 114.29333"
   sodipodi:docname="UK International Development Logo Colour (3).eps"
   xmlns:inkscape="http://www.inkscape.org/namespaces/inkscape"
   xmlns:sodipodi="http://sodipodi.sourceforge.net/DTD/sodipodi-0.dtd"
   xmlns="http://www.w3.org/2000/svg"
   xmlns:svg="http://www.w3.org/2000/svg">
  <defs
     id="defs1" />
  <sodipodi:namedview
     id="namedview1"
     pagecolor="#ffffff"
     bordercolor="#000000"
     borderopacity="0.25"
     inkscape:showpageshadow="2"
     inkscape:pageopacity="0.0"
     inkscape:pagecheckerboard="0"
     inkscape:deskcolor="#d1d1d1">
    <inkscape:page
       x="0"
       y="0"
       inkscape:label="1"
       id="page1"
       width="425.86667"
       height="114.29333"
       margin="0"
       bleed="0" />
  </sodipodi:namedview>
  <g
     id="g1"
     inkscape:groupmode="layer"
     inkscape:label="1">
    <g
       id="group-R5">
      <path
         id="path2"
         d="M 934.355,304.18 H 8.07813 V 857.168 H 934.355 V 304.18"
         style="fill:#ffffff;fill-opacity:1;fill-rule:nonzero;stroke:none"
         transform="matrix(0.13333333,0,0,-0.13333333,0,114.29333)" />
      <path
         id="path3"
         d="m 934.355,672.844 v 119.84 L 733.617,672.844 Z"
         style="fill:#222d62;fill-opacity:1;fill-rule:nonzero;stroke:none"
         transform="matrix(0.13333333,0,0,-0.13333333,0,114.29333)" />
      <path
         id="path4"
         d="M 378.59,857.102 H 116.211 L 378.59,700.461 Z"
         style="fill:#222d62;fill-opacity:1;fill-rule:nonzero;stroke:none"
         transform="matrix(0.13333333,0,0,-0.13333333,0,114.29333)" />
      <path
         id="path5"
         d="M 8.07813,488.512 V 368.672 L 208.809,488.512 Z"
         style="fill:#222d62;fill-opacity:1;fill-rule:nonzero;stroke:none"
         transform="matrix(0.13333333,0,0,-0.13333333,0,114.29333)" />
      <path
         id="path6"
         d="M 563.844,857.102 V 700.461 l 262.383,156.641 z"
         style="fill:#222d62;fill-opacity:1;fill-rule:nonzero;stroke:none"
         transform="matrix(0.13333333,0,0,-0.13333333,0,114.29333)" />
      <path
         id="path7"
         d="M 8.07813,792.68 V 672.84 H 208.816 Z"
         style="fill:#222d62;fill-opacity:1;fill-rule:nonzero;stroke:none"
         transform="matrix(0.13333333,0,0,-0.13333333,0,114.29333)" />
      <path
         id="path8"
         d="m 934.355,368.672 v 119.84 H 733.617 Z"
         style="fill:#222d62;fill-opacity:1;fill-rule:nonzero;stroke:none"
         transform="matrix(0.13333333,0,0,-0.13333333,0,114.29333)" />
      <path
         id="path9"
         d="m 116.086,304.184 h 262.5 v 156.711 z"
         style="fill:#222d62;fill-opacity:1;fill-rule:nonzero;stroke:none"
         transform="matrix(0.13333333,0,0,-0.13333333,0,114.29333)" />
      <path
         id="path10"
         d="m 563.844,304.184 h 262.5 l -262.5,156.699 z"
         style="fill:#222d62;fill-opacity:1;fill-rule:nonzero;stroke:none"
         transform="matrix(0.13333333,0,0,-0.13333333,0,114.29333)" />
      <path
         id="path11"
         d="M 244.82,672.844 8.08203,814.172 v 43 L 316.828,672.844 Z M 697.609,488.512 934.359,347.172 V 304.184 L 625.59,488.512 Z m -133.757,190.461 298.5,178.199 h 72.007 L 625.602,672.844 h -61.75 z M 8.08203,304.184 316.828,488.512 h 61.762 v -6.121 L 80.0781,304.184 H 8.08203"
         style="fill:#d01c2e;fill-opacity:1;fill-rule:nonzero;stroke:none"
         transform="matrix(0.13333333,0,0,-0.13333333,0,114.29333)" />
      <path
         id="path12"
         d="M 415.645,304.184 V 525.371 H 8.08203 V 635.973 H 415.645 V 857.172 H 526.793 V 635.973 H 934.352 V 525.371 H 526.793 V 304.184 H 415.645"
         style="fill:#d01c2e;fill-opacity:1;fill-rule:nonzero;stroke:none"
         transform="matrix(0.13333333,0,0,-0.13333333,0,114.29333)" />
      <path
         id="path13"
         d="m 934.355,672.844 v 119.84 L 733.617,672.844 Z"
         style="fill:#222d62;fill-opacity:1;fill-rule:nonzero;stroke:none"
         transform="matrix(0.13333333,0,0,-0.13333333,0,114.29333)" />
      <path
         id="path14"
         d="M 378.59,857.102 H 116.211 L 378.59,700.461 Z"
         style="fill:#222d62;fill-opacity:1;fill-rule:nonzero;stroke:none"
         transform="matrix(0.13333333,0,0,-0.13333333,0,114.29333)" />
      <path
         id="path15"
         d="M 8.07813,488.512 V 368.672 L 208.809,488.512 Z"
         style="fill:#222d62;fill-opacity:1;fill-rule:nonzero;stroke:none"
         transform="matrix(0.13333333,0,0,-0.13333333,0,114.29333)" />
      <path
         id="path16"
         d="M 563.844,857.102 V 700.461 l 262.383,156.641 z"
         style="fill:#222d62;fill-opacity:1;fill-rule:nonzero;stroke:none"
         transform="matrix(0.13333333,0,0,-0.13333333,0,114.29333)" />
      <path
         id="path17"
         d="M 8.07813,792.68 V 672.84 H 208.816 Z"
         style="fill:#222d62;fill-opacity:1;fill-rule:nonzero;stroke:none"
         transform="matrix(0.13333333,0,0,-0.13333333,0,114.29333)" />
      <path
         id="path18"
         d="m 934.355,368.672 v 119.84 H 733.617 Z"
         style="fill:#222d62;fill-opacity:1;fill-rule:nonzero;stroke:none"
         transform="matrix(0.13333333,0,0,-0.13333333,0,114.29333)" />
      <path
         id="path19"
         d="m 116.086,304.184 h 262.5 v 156.711 z"
         style="fill:#222d62;fill-opacity:1;fill-rule:nonzero;stroke:none"
         transform="matrix(0.13333333,0,0,-0.13333333,0,114.29333)" />
      <path
         id="path20"
         d="m 563.844,304.184 h 262.5 l -262.5,156.699 z"
         style="fill:#222d62;fill-opacity:1;fill-rule:nonzero;stroke:none"
         transform="matrix(0.13333333,0,0,-0.13333333,0,114.29333)" />
      <path
         id="path21"
         d="M 244.82,672.844 8.08203,814.172 v 43 L 316.828,672.844 Z M 697.609,488.512 934.359,347.172 V 304.184 L 625.59,488.512 Z m -133.757,190.461 298.5,178.199 h 72.007 L 625.602,672.844 h -61.75 z M 8.08203,304.184 316.828,488.512 h 61.762 v -6.121 L 80.0781,304.184 H 8.08203"
         style="fill:#d01c2e;fill-opacity:1;fill-rule:nonzero;stroke:none"
         transform="matrix(0.13333333,0,0,-0.13333333,0,114.29333)" />
      <path
         id="path22"
         d="M 415.645,304.184 V 525.371 H 8.08203 V 635.973 H 415.645 V 857.172 H 526.793 V 635.973 H 934.352 V 525.371 H 526.793 V 304.184 H 415.645"
         style="fill:#d01c2e;fill-opacity:1;fill-rule:nonzero;stroke:none"
         transform="matrix(0.13333333,0,0,-0.13333333,0,114.29333)" />
      <path
         id="path23"
         d="m 1399.05,346.473 c -5.04,-4.34 -11.25,-6.508 -18.63,-6.508 -10.86,0 -19.93,4.187 -27.2,12.57 -7.28,8.379 -11.08,20.11 -11.41,35.188 h 118.18 c 0.67,38.953 -6.66,67.859 -21.99,86.742 -15.34,18.871 -36.26,28.308 -62.79,28.308 -23.61,0 -43.14,-9.007 -58.59,-27.039 -15.44,-18.031 -23.16,-42.968 -23.16,-74.808 0,-26.653 5.87,-48.723 17.62,-66.211 14.89,-21.832 37.83,-32.742 68.83,-32.742 19.59,0 35.9,4.851 48.94,14.562 13.03,9.707 22.58,23.848 28.62,42.418 l -47,8.512 c -2.58,-9.66 -6.38,-16.652 -11.42,-20.992 m -56.41,72.363 c -0.11,13.867 3.19,24.848 9.91,32.93 6.71,8.078 15.22,12.117 25.52,12.117 9.62,0 17.79,-3.828 24.51,-11.488 6.71,-7.661 10.24,-18.84 10.57,-33.559 z m 247.28,-112.523 70.84,192.121 h -48.51 l -33.91,-98.051 c -1.79,-5.43 -3.47,-10.848 -5.04,-16.278 -0.67,-2.66 -2.29,-8.14 -4.87,-16.46 l -9.73,32.738 -33.58,98.051 h -49.52 l 71.85,-192.121 z m 191.54,40.16 c -5.03,-4.34 -11.24,-6.508 -18.63,-6.508 -10.86,0 -19.92,4.187 -27.2,12.57 -7.27,8.379 -11.07,20.11 -11.41,35.188 h 118.18 c 0.67,38.953 -6.66,67.859 -21.99,86.742 -15.33,18.871 -36.26,28.308 -62.78,28.308 -23.62,0 -43.15,-9.007 -58.59,-27.039 -15.45,-18.031 -23.17,-42.968 -23.17,-74.808 0,-26.653 5.88,-48.723 17.63,-66.211 14.88,-21.832 37.83,-32.742 68.83,-32.742 19.58,0 35.89,4.851 48.93,14.562 13.04,9.707 22.58,23.848 28.62,42.418 l -47,8.512 c -2.58,-9.66 -6.38,-16.652 -11.42,-20.992 m -56.4,72.363 c -0.11,13.867 3.19,24.848 9.9,32.93 6.72,8.078 15.22,12.117 25.52,12.117 9.62,0 17.79,-3.828 24.51,-11.488 6.71,-7.661 10.24,-18.84 10.58,-33.559 z m 202.96,152.687 h -47.17 v -265.21 h 47.17 z m 49.02,-222.609 c 7.72,-15.371 18.99,-27.039 33.82,-35 14.83,-7.961 30.41,-11.941 46.75,-11.941 26.42,0 48.32,9.55 65.73,28.672 17.4,19.109 26.1,43.21 26.1,72.269 0,28.828 -8.62,52.668 -25.85,71.551 -17.24,18.871 -39.34,28.308 -66.31,28.308 -17.46,0 -33.27,-4.16 -47.42,-12.48 -14.16,-8.32 -25.1,-20.379 -32.82,-36.18 -7.73,-15.8 -11.59,-32.14 -11.59,-49.027 0,-22.07 3.86,-40.793 11.59,-56.172 m 49.35,97.238 c 8.39,10.133 18.74,15.203 31.06,15.203 12.31,0 22.63,-5.07 30.97,-15.203 8.34,-10.129 12.51,-24.597 12.51,-43.418 0,-19.3 -4.17,-34.011 -12.51,-44.14 -8.34,-10.129 -18.66,-15.199 -30.97,-15.199 -12.32,0 -22.67,5.07 -31.06,15.199 -8.39,10.129 -12.59,24.719 -12.59,43.781 0,19.051 4.2,33.648 12.59,43.777 m 158.64,-212.929 h 47.17 v 96.793 c 8.84,-10.25 17.26,-17.493 25.27,-21.711 8,-4.219 16.92,-6.332 26.77,-6.332 20.71,0 38.33,8.89 52.88,26.679 14.55,17.793 21.83,42.723 21.83,74.813 0,31.23 -7.22,55.59 -21.66,73.078 -14.44,17.492 -32.01,26.23 -52.71,26.23 -11.87,0 -22.66,-3.007 -32.4,-9.039 -9.74,-6.031 -17.46,-13.871 -23.17,-23.519 v 28.219 h -43.98 z m 58.08,215.011 c 7.61,9.59 17.18,14.379 28.71,14.379 11.08,0 20.37,-4.879 27.87,-14.648 7.49,-9.77 11.24,-24.731 11.24,-44.871 0,-21.59 -3.63,-37.11 -10.91,-46.578 -7.27,-9.473 -16.39,-14.203 -27.36,-14.203 -11.42,0 -21.1,5.16 -29.04,15.472 -7.95,10.309 -11.92,26.258 -11.92,47.848 0,18.812 3.8,33.012 11.41,42.601 m 149.75,-141.921 h 47.17 v 93.351 c 0,18.449 1.26,31.66 3.78,39.621 2.51,7.949 6.68,14.039 12.5,18.27 5.82,4.218 12.37,6.328 19.64,6.328 6.05,0 10.83,-1.328 14.36,-3.981 3.52,-2.66 6.12,-6.699 7.8,-12.117 1.68,-5.43 2.52,-17.492 2.52,-36.18 V 306.313 h 47.17 v 92.261 c 0,18.09 1.29,31.328 3.86,39.711 2.58,8.379 6.77,14.738 12.59,19.09 5.82,4.34 12.03,6.508 18.64,6.508 9.06,0 15.78,-3.617 20.14,-10.86 3.25,-5.539 4.87,-17.847 4.87,-36.898 V 306.313 h 47.17 v 122.832 c 0,18.339 -1.62,31.597 -4.86,39.8 -4.48,11.098 -11.25,19.508 -20.32,25.239 -9.06,5.73 -20.14,8.589 -33.24,8.589 -10.29,0 -19.97,-2.531 -29.04,-7.597 -9.06,-5.063 -17.51,-12.723 -25.35,-22.973 -5.37,10.25 -12.25,17.91 -20.65,22.973 -8.39,5.066 -18.29,7.597 -29.71,7.597 -21.49,0 -40.01,-10.187 -55.56,-30.57 v 26.231 h -43.48 z m 401.04,40.16 c -5.03,-4.34 -11.24,-6.508 -18.63,-6.508 -10.86,0 -19.92,4.187 -27.19,12.57 -7.28,8.379 -11.09,20.11 -11.42,35.188 h 118.18 c 0.67,38.953 -6.66,67.859 -21.99,86.742 -15.33,18.871 -36.26,28.308 -62.78,28.308 -23.62,0 -43.15,-9.007 -58.59,-27.039 -15.45,-18.031 -23.17,-42.968 -23.17,-74.808 0,-26.653 5.88,-48.723 17.63,-66.211 14.88,-21.832 37.82,-32.742 68.83,-32.742 19.58,0 35.89,4.851 48.93,14.562 13.04,9.707 22.58,23.848 28.62,42.418 l -47,8.512 c -2.58,-9.66 -6.38,-16.652 -11.42,-20.992 m -56.4,72.363 c -0.11,13.867 3.19,24.848 9.9,32.93 6.72,8.078 15.22,12.117 25.52,12.117 9.62,0 17.79,-3.828 24.51,-11.488 6.71,-7.661 10.24,-18.84 10.58,-33.559 z m 317.95,6.879 c 0,14.828 -0.87,26.23 -2.6,34.187 -1.74,7.961 -4.82,15.071 -9.24,21.352 -4.42,6.262 -10.94,11.422 -19.55,15.461 -8.62,4.039 -18.13,6.058 -28.54,6.058 -23.62,0 -43.2,-10.847 -58.76,-32.558 v 28.219 h -43.81 V 306.313 h 47.17 v 87.011 c 0,21.469 1.2,36.192 3.61,44.149 2.41,7.961 6.85,14.351 13.35,19.172 6.49,4.82 13.82,7.238 21.99,7.238 6.38,0 11.83,-1.688 16.37,-5.07 4.53,-3.379 7.8,-8.11 9.82,-14.2 2.01,-6.09 3.02,-19.508 3.02,-40.25 v -98.05 h 47.17 z m 97.37,72.719 v 67.839 l -47.34,-29.668 v -38.171 h -21.66 v -40.52 h 21.66 v -83.762 c 0,-17.968 0.5,-29.91 1.51,-35.816 1.23,-8.32 3.44,-14.934 6.63,-19.813 3.19,-4.878 8.19,-8.859 15.02,-11.937 6.83,-3.082 14.49,-4.613 23,-4.613 13.88,0 26.3,2.531 37.27,7.601 l -4.03,39.43 c -8.28,-3.25 -14.61,-4.879 -18.97,-4.879 -3.13,0 -5.79,0.84 -7.97,2.527 -2.19,1.692 -3.59,3.832 -4.2,6.422 -0.62,2.602 -0.92,11.731 -0.92,27.41 v 77.43 h 32.23 v 40.52 h -32.23"
         style="fill:#222d62;fill-opacity:1;fill-rule:nonzero;stroke:none"
         transform="matrix(0.13333333,0,0,-0.13333333,0,114.29333)" />
      <path
         id="path24"
         d="m 1059.11,306.313 h 93.5 c 18.36,0 33.02,1.871 43.99,5.609 14.66,5.062 26.3,12.121 34.91,21.16 11.42,11.941 20.2,27.563 26.36,46.859 5.04,15.801 7.56,34.614 7.56,56.442 0,24.851 -2.69,45.738 -8.06,62.691 -5.37,16.938 -13.21,31.258 -23.5,42.957 -10.3,11.703 -22.67,19.84 -37.1,24.422 -10.75,3.379 -26.36,5.07 -46.84,5.07 h -90.82 z m 72.02,220.339 c 20.25,0 33.85,-0.839 40.79,-2.531 9.29,-2.168 16.96,-6.328 23,-12.476 6.04,-6.153 10.74,-14.723 14.1,-25.692 3.36,-10.98 5.04,-26.711 5.04,-47.219 0,-20.5 -1.68,-36.691 -5.04,-48.57 -3.36,-11.883 -7.7,-20.41 -13.01,-25.601 -5.32,-5.18 -12,-8.86 -20.06,-11.032 -6.16,-1.687 -16.17,-2.539 -30.05,-2.539 h -37.1 v 175.66 h 22.33"
         style="fill:#222d62;fill-opacity:1;fill-rule:nonzero;stroke:none"
         transform="matrix(0.13333333,0,0,-0.13333333,0,114.29333)" />
      <path
         id="path25"
         d="m 1058.76,731.234 c 0,-21.55 3.34,-38.328 10.02,-50.339 12.54,-22.008 36.35,-33.02 71.41,-33.02 35.06,0 58.82,11.012 71.27,33.02 6.68,12.011 10.02,28.789 10.02,50.339 v 124.621 h -43.05 V 731.336 c 0,-13.93 -1.65,-24.102 -4.94,-30.512 -5.11,-11.359 -16.21,-17.051 -33.3,-17.051 -17.18,0 -28.33,5.692 -33.44,17.051 -3.29,6.41 -4.94,16.582 -4.94,30.512 v 124.519 h -43.05 z m 204.13,-78.129 h 41.67 v 67.809 l 20.41,20.691 62.47,-88.5 h 54.47 l -87.47,119.372 83.2,83.378 h -54.74 l -78.34,-83.539 v 83.539 h -41.67 z m 319.66,202.75 h -42.09 v -202.75 h 42.09 z m 119.49,-49.242 c -12.33,0 -22.52,-3.027 -30.55,-9.078 -4.47,-3.39 -9.22,-8.941 -14.24,-16.64 v 21.871 h -37.97 V 653.105 h 39.2 v 81.161 c 0,9.257 1.28,16.871 3.83,22.828 4.91,11.281 13.97,16.922 27.17,16.922 10.74,0 18.02,-3.852 21.85,-11.563 2.09,-4.207 3.14,-10.269 3.14,-18.148 v -91.2 h 40.16 v 100.961 c 0,18.797 -4.91,32.258 -14.72,40.368 -9.82,8.121 -22.44,12.179 -37.87,12.179 m 94.54,-32.879 v -92.289 c 0,-9.359 2.21,-16.281 6.61,-20.769 6.78,-7.071 19.44,-10.27 37.96,-9.629 l 18.57,0.687 v 29.289 c -1.28,-0.089 -2.59,-0.16 -3.92,-0.199 -1.33,-0.051 -2.59,-0.07 -3.78,-0.07 -7.98,0 -12.75,0.762 -14.31,2.269 -1.56,1.512 -2.34,5.34 -2.34,11.481 v 79.23 h 24.35 v 27.93 h -24.35 v 41.813 h -38.79 v -41.813 h -20.9 v -27.93 z m 150.77,0.969 c 9.25,0 17,-2.699 23.25,-8.09 6.25,-5.386 9.73,-13.277 10.44,-23.687 h -67.54 c 1.43,9.758 4.91,17.5 10.45,23.211 5.54,5.707 13.33,8.566 23.4,8.566 m -0.02,32.32 c -21.97,0 -39.85,-6.929 -53.61,-20.789 -13.77,-13.859 -20.66,-33.769 -20.66,-59.75 0,-27.711 7.63,-47.718 22.88,-60.019 15.25,-12.301 32.86,-18.449 52.81,-18.449 24.18,0 42.98,7.289 56.41,21.871 8.63,9.168 13.48,18.199 14.53,27.097 h -40.02 c -2.33,-4.398 -5.03,-7.839 -8.07,-10.32 -5.58,-4.578 -12.84,-6.867 -21.77,-6.867 -8.42,0 -15.62,1.867 -21.61,5.637 -9.84,6.05 -15.07,16.589 -15.68,31.632 h 109.2 c 0.19,12.95 -0.24,22.868 -1.29,29.758 -1.83,11.75 -5.81,22.09 -11.95,30.992 -6.81,10.11 -15.45,17.5 -25.91,22.18 -10.46,4.688 -22.21,7.027 -35.26,7.027 m 175.66,-0.41 c -11.74,0 -21.27,-3.078 -28.61,-9.218 -4.49,-3.668 -9.76,-10.5 -15.82,-20.489 v 26.129 h -37.41 v -149.93 h 39.48 v 71.668 c 0,12.012 1.51,20.903 4.54,26.68 5.41,10.274 16,15.41 31.77,15.41 1.19,0 2.75,-0.047 4.68,-0.136 1.92,-0.09 4.12,-0.282 6.6,-0.551 v 40.16 c -1.74,0.09 -2.87,0.16 -3.37,0.207 -0.5,0.043 -1.12,0.07 -1.86,0.07 m 111.23,0 c -12.33,0 -22.51,-3.027 -30.54,-9.078 -4.48,-3.39 -9.23,-8.941 -14.25,-16.64 v 21.871 h -37.96 V 653.105 h 39.2 v 81.161 c 0,9.257 1.27,16.871 3.82,22.828 4.92,11.281 13.97,16.922 27.18,16.922 10.74,0 18.02,-3.852 21.84,-11.563 2.1,-4.207 3.14,-10.269 3.14,-18.148 v -91.2 h 40.17 v 100.961 c 0,18.797 -4.91,32.258 -14.73,40.368 -9.81,8.121 -22.44,12.179 -37.87,12.179 m 172.4,-95.187 c -0.28,-13.11 -4.02,-22.141 -11.24,-27.102 -7.22,-4.949 -15.11,-7.418 -23.67,-7.418 -5.41,0 -9.99,1.489 -13.76,4.469 -3.77,2.98 -5.66,7.809 -5.66,14.512 0,7.519 3.09,13.066 9.26,16.636 3.65,2.114 9.66,3.903 18.02,5.372 l 8.93,1.652 c 4.46,0.816 7.97,1.719 10.52,2.68 2.56,0.957 5.09,2.218 7.6,3.777 z m -37.41,31.23 c -15.24,-1.929 -26.79,-5.14 -34.64,-9.633 -14.32,-8.25 -21.48,-21.597 -21.48,-40.027 0,-14.211 4.45,-25.191 13.35,-32.941 8.9,-7.75 20.18,-11.629 33.83,-11.629 10.7,0 20.29,2.429 28.78,7.289 7.1,4.129 13.37,9.129 18.81,15 0.28,-3.399 0.64,-6.418 1.1,-9.078 0.46,-2.66 1.29,-5.5 2.48,-8.532 h 42.64 v 5.782 c -2.57,1.187 -4.49,2.699 -5.78,4.539 -1.28,1.828 -2.06,5.308 -2.34,10.449 -0.18,6.789 -0.27,12.559 -0.27,17.328 v 68.781 c 0,18.063 -6.4,30.352 -19.2,36.86 -12.81,6.511 -27.45,9.769 -43.93,9.769 -25.33,0 -43.2,-6.597 -53.6,-19.808 -6.54,-8.442 -10.23,-19.211 -11.06,-32.321 h 37.83 c 0.93,5.77 2.79,10.36 5.58,13.75 3.9,4.59 10.55,6.879 19.94,6.879 8.36,0 14.71,-1.168 19.03,-3.508 4.32,-2.339 6.48,-6.582 6.48,-12.718 0,-5.051 -2.82,-8.762 -8.45,-11.141 -3.14,-1.383 -8.36,-2.531 -15.66,-3.441 z m 116.23,31.078 v -92.289 c 0,-9.359 2.2,-16.281 6.6,-20.769 6.79,-7.071 19.44,-10.27 37.97,-9.629 l 18.57,0.687 v 29.289 c -1.29,-0.089 -2.59,-0.16 -3.92,-0.199 -1.33,-0.051 -2.59,-0.07 -3.79,-0.07 -7.97,0 -12.74,0.762 -14.3,2.269 -1.56,1.512 -2.34,5.34 -2.34,11.481 v 79.23 h 24.35 v 27.93 h -24.35 v 41.813 h -38.79 v -41.813 h -20.91 v -27.93 z m 128.61,83.36 h -39.75 v -36.18 h 39.75 z M 2574.3,653.105 h 39.75 v 149.93 h -39.75 z m 144.98,27.79 c -11.47,0 -20.29,4.07 -26.48,12.218 -6.19,8.153 -9.28,19.731 -9.28,34.75 0,15.024 3.09,26.582 9.28,34.684 6.19,8.098 15.01,12.156 26.48,12.156 11.46,0 20.26,-4.058 26.41,-12.156 6.14,-8.102 9.21,-19.66 9.21,-34.684 0,-15.019 -3.07,-26.597 -9.21,-34.75 -6.15,-8.148 -14.95,-12.218 -26.41,-12.218 m 76.75,46.968 c 0,21.621 -6.33,40.364 -18.98,56.211 -12.65,15.852 -31.87,23.781 -57.63,23.781 -25.77,0 -44.98,-7.929 -57.64,-23.781 -12.65,-15.847 -18.98,-34.59 -18.98,-56.211 0,-21.988 6.33,-40.797 18.98,-56.418 12.66,-15.621 31.87,-23.429 57.64,-23.429 25.76,0 44.98,7.808 57.63,23.429 12.65,15.621 18.98,34.43 18.98,56.418 m 111.09,78.75 c -12.33,0 -22.51,-3.027 -30.54,-9.078 -4.48,-3.39 -9.23,-8.941 -14.25,-16.64 v 21.871 h -37.96 V 653.105 h 39.2 v 81.161 c 0,9.257 1.27,16.871 3.82,22.828 4.92,11.281 13.98,16.922 27.18,16.922 10.74,0 18.02,-3.852 21.84,-11.563 2.1,-4.207 3.14,-10.269 3.14,-18.148 v -91.2 h 40.17 v 100.961 c 0,18.797 -4.91,32.258 -14.73,40.368 -9.81,8.121 -22.44,12.179 -37.87,12.179 m 172.4,-95.187 c -0.28,-13.11 -4.02,-22.141 -11.24,-27.102 -7.22,-4.949 -15.11,-7.418 -23.67,-7.418 -5.4,0 -9.99,1.489 -13.76,4.469 -3.77,2.98 -5.66,7.809 -5.66,14.512 0,7.519 3.09,13.066 9.26,16.636 3.65,2.114 9.66,3.903 18.02,5.372 l 8.93,1.652 c 4.46,0.816 7.97,1.719 10.52,2.68 2.56,0.957 5.09,2.218 7.6,3.777 z m -37.41,31.23 c -15.24,-1.929 -26.79,-5.14 -34.64,-9.633 -14.32,-8.25 -21.48,-21.597 -21.48,-40.027 0,-14.211 4.45,-25.191 13.35,-32.941 8.9,-7.75 20.18,-11.629 33.83,-11.629 10.7,0 20.29,2.429 28.78,7.289 7.1,4.129 13.37,9.129 18.81,15 0.28,-3.399 0.64,-6.418 1.1,-9.078 0.46,-2.66 1.29,-5.5 2.48,-8.532 h 42.64 v 5.782 c -2.57,1.187 -4.49,2.699 -5.78,4.539 -1.28,1.828 -2.06,5.308 -2.34,10.449 -0.18,6.789 -0.27,12.559 -0.27,17.328 v 68.781 c 0,18.063 -6.4,30.352 -19.2,36.86 -12.8,6.511 -27.45,9.769 -43.93,9.769 -25.33,0 -43.2,-6.597 -53.6,-19.808 -6.54,-8.442 -10.23,-19.211 -11.06,-32.321 h 37.83 c 0.93,5.77 2.79,10.36 5.58,13.75 3.9,4.59 10.55,6.879 19.94,6.879 8.36,0 14.71,-1.168 19.03,-3.508 4.32,-2.339 6.48,-6.582 6.48,-12.718 0,-5.051 -2.81,-8.762 -8.45,-11.141 -3.14,-1.383 -8.36,-2.531 -15.66,-3.441 z m 150.76,113.199 h -39.2 v -202.75 h 39.2 v 202.75"
         style="fill:#222d62;fill-opacity:1;fill-rule:nonzero;stroke:none"
         transform="matrix(0.13333333,0,0,-0.13333333,0,114.29333)" />
      <path
         id="path26"
         d="m 61.4297,136.895 c -3.4766,1.64 -8.2422,2.46 -14.3008,2.46 H 15.8398 V 98.8477 h 31.2891 c 7.0625,0 12.7891,1.5113 17.1875,4.5393 4.3984,3.019 6.5977,8.351 6.5977,16 0,8.59 -3.1602,14.422 -9.4844,17.508 z M 0,152.969 h 52.3203 c 10.3399,0 18.6914,-2.93 25.0547,-8.797 6.3555,-5.863 9.5352,-14.106 9.5352,-24.707 0,-9.133 -2.836,-17.074 -8.5118,-23.84 C 72.7227,88.8555 64.0391,85.4766 52.3438,85.4766 H 15.8398 V 36.0547 H 0 V 152.969"
         style="fill:#222d62;fill-opacity:1;fill-rule:nonzero;stroke:none"
         transform="matrix(0.13333333,0,0,-0.13333333,0,114.29333)" />
      <path
         id="path27"
         d="m 120.816,48.9336 c 3.024,-2.3789 6.606,-3.5625 10.743,-3.5625 5.043,0 9.921,1.1602 14.64,3.4844 7.961,3.8672 11.942,10.207 11.942,18.9961 V 79.375 c -1.75,-1.1133 -3.996,-2.0508 -6.75,-2.793 -2.754,-0.7539 -5.453,-1.2773 -8.106,-1.5937 l -8.656,-1.1094 c -5.188,-0.6953 -9.094,-1.7812 -11.703,-3.2656 -4.434,-2.4883 -6.649,-6.4531 -6.649,-11.9141 0,-4.1211 1.516,-7.3828 4.539,-9.7656 z m 30.164,38.7031 c 3.29,0.4297 5.489,1.8047 6.602,4.1289 0.641,1.2813 0.957,3.1172 0.957,5.5196 0,4.9028 -1.73,8.4568 -5.203,10.6638 -3.469,2.207 -8.434,3.313 -14.895,3.313 -7.464,0 -12.757,-2.024 -15.882,-6.078 -1.746,-2.235 -2.887,-5.5746 -3.414,-10.0004 H 105.77 c 0.269,10.5394 3.671,17.8714 10.214,21.9964 6.551,4.121 14.137,6.179 22.778,6.179 10.015,0 18.152,-1.906 24.402,-5.73 6.199,-3.82 9.301,-9.758 9.301,-17.8243 V 50.6914 c 0,-1.4805 0.308,-2.6758 0.918,-3.5742 0.605,-0.9063 1.894,-1.3555 3.859,-1.3555 0.641,0 1.352,0.0391 2.149,0.1172 0.797,0.0899 1.644,0.207 2.547,0.3594 v -10.586 c -2.231,-0.6328 -3.926,-1.0351 -5.09,-1.1875 -1.168,-0.1601 -2.762,-0.2382 -4.778,-0.2382 -4.937,0 -8.515,1.75 -10.746,5.2461 -1.168,1.8554 -1.988,4.4804 -2.469,7.8789 -2.917,-3.8164 -7.109,-7.1368 -12.57,-9.9493 -5.469,-2.8046 -11.488,-4.2109 -18.066,-4.2109 -7.906,0 -14.367,2.3945 -19.379,7.1914 -5.016,4.793 -7.524,10.7969 -7.524,18.0039 0,7.8906 2.469,14.0156 7.399,18.3594 4.937,4.3477 11.414,7.0234 19.422,8.0273 l 22.843,2.8633"
         style="fill:#222d62;fill-opacity:1;fill-rule:nonzero;stroke:none"
         transform="matrix(0.13333333,0,0,-0.13333333,0,114.29333)" />
      <path
         id="path28"
         d="m 196.344,121.289 h 13.605 V 106.57 c 1.114,2.864 3.852,6.352 8.199,10.461 4.352,4.11 9.368,6.172 15.043,6.172 0.266,0 0.715,-0.027 1.356,-0.078 0.633,-0.059 1.723,-0.164 3.262,-0.32 v -15.121 c -0.852,0.16 -1.633,0.265 -2.348,0.312 -0.719,0.059 -1.5,0.078 -2.352,0.078 -7.214,0 -12.757,-2.312 -16.629,-6.961 -3.878,-4.6403 -5.812,-9.9802 -5.812,-16.0349 V 36.0547 h -14.324 v 85.2343"
         style="fill:#222d62;fill-opacity:1;fill-rule:nonzero;stroke:none"
         transform="matrix(0.13333333,0,0,-0.13333333,0,114.29333)" />
      <path
         id="path29"
         d="m 253.086,145.09 h 14.488 v -23.801 h 13.61 V 109.59 h -13.61 V 53.9648 c 0,-2.9804 1.004,-4.9609 3.024,-5.9765 1.113,-0.5781 2.972,-0.8711 5.57,-0.8711 0.687,0 1.434,0.0195 2.23,0.0508 0.79,0.039 1.719,0.1289 2.786,0.2617 v -11.375 c -1.649,-0.4805 -3.356,-0.8203 -5.133,-1.0352 -1.781,-0.2148 -3.703,-0.3242 -5.774,-0.3242 -6.683,0 -11.218,1.7227 -13.605,5.1406 -2.391,3.4258 -3.586,7.8672 -3.586,13.3282 V 109.59 h -11.539 v 11.699 h 11.539 v 23.801"
         style="fill:#222d62;fill-opacity:1;fill-rule:nonzero;stroke:none"
         transform="matrix(0.13333333,0,0,-0.13333333,0,114.29333)" />
      <path
         id="path30"
         d="m 295.508,121.289 h 13.609 v -12.09 c 4.028,4.981 8.301,8.563 12.813,10.742 4.508,2.168 9.519,3.262 15.043,3.262 12.093,0 20.261,-4.219 24.511,-12.656 2.332,-4.617 3.5,-11.2228 3.5,-19.8165 V 36.0547 h -14.562 v 53.7187 c 0,5.1993 -0.774,9.3985 -2.313,12.5786 -2.543,5.304 -7.164,7.961 -13.847,7.961 -3.395,0 -6.18,-0.352 -8.356,-1.036 -3.926,-1.172 -7.375,-3.507 -10.343,-7.004 -2.387,-2.8082 -3.942,-5.7183 -4.661,-8.7183 -0.711,-3 -1.074,-7.2852 -1.074,-12.8516 V 36.0547 h -14.32 v 85.2343"
         style="fill:#222d62;fill-opacity:1;fill-rule:nonzero;stroke:none"
         transform="matrix(0.13333333,0,0,-0.13333333,0,114.29333)" />
      <path
         id="path31"
         d="m 443.938,85.4766 c -0.583,6.2109 -1.926,11.1718 -4.032,14.8824 -3.89,6.899 -10.39,10.344 -19.492,10.344 -6.523,0 -11.992,-2.375 -16.41,-7.117 -4.418,-4.7462 -6.762,-10.7813 -7.027,-18.1094 z m -5.133,33.4684 c 5.644,-2.843 9.941,-6.515 12.894,-11.023 2.848,-4.301 4.742,-9.3087 5.696,-15.0392 0.843,-3.9297 1.261,-10.1875 1.261,-18.7812 H 396.66 c 0.266,-8.6797 2.289,-15.6328 6.078,-20.8789 3.793,-5.2344 9.664,-7.8516 17.614,-7.8516 7.421,0 13.343,2.4727 17.761,7.4336 2.477,2.8789 4.231,6.207 5.266,9.9883 h 14.086 c -0.371,-3.125 -1.606,-6.6211 -3.699,-10.4571 -2.102,-3.8515 -4.434,-6.9921 -7.02,-9.4375 -4.312,-4.2461 -9.66,-7.1054 -16.027,-8.5937 -3.422,-0.8477 -7.297,-1.2774 -11.614,-1.2774 -10.546,0 -19.48,3.8672 -26.808,11.5821 -7.332,7.7265 -10.996,18.5351 -10.996,32.4336 0,13.6875 3.687,24.805 11.07,33.348 7.387,8.543 17.031,12.812 28.953,12.812 6.012,0 11.836,-1.426 17.481,-4.258"
         style="fill:#222d62;fill-opacity:1;fill-rule:nonzero;stroke:none"
         transform="matrix(0.13333333,0,0,-0.13333333,0,114.29333)" />
      <path
         id="path32"
         d="m 477.203,121.289 h 13.61 V 106.57 c 1.113,2.864 3.843,6.352 8.195,10.461 4.351,4.11 9.367,6.172 15.047,6.172 0.261,0 0.711,-0.027 1.351,-0.078 0.633,-0.059 1.723,-0.164 3.262,-0.32 v -15.121 c -0.852,0.16 -1.633,0.265 -2.352,0.312 -0.714,0.059 -1.496,0.078 -2.347,0.078 -7.215,0 -12.758,-2.312 -16.629,-6.961 -3.879,-4.6403 -5.813,-9.9802 -5.813,-16.0349 V 36.0547 h -14.324 v 85.2343"
         style="fill:#222d62;fill-opacity:1;fill-rule:nonzero;stroke:none"
         transform="matrix(0.13333333,0,0,-0.13333333,0,114.29333)" />
      <path
         id="path33"
         d="m 539.605,62.793 c 0.43,-4.7774 1.649,-8.4375 3.653,-10.9766 3.68,-4.6211 10.07,-6.9258 19.168,-6.9258 5.418,0 10.179,1.1563 14.297,3.4571 4.117,2.3046 6.172,5.8789 6.172,10.707 0,3.6601 -1.645,6.4414 -4.93,8.3555 -2.106,1.164 -6.254,2.5195 -12.457,4.0625 l -11.567,2.8632 c -7.386,1.8047 -12.832,3.8164 -16.339,6.0469 -6.254,3.875 -9.379,9.2344 -9.379,16.082 0,8.0552 2.945,14.5902 8.828,19.5702 5.887,4.988 13.808,7.488 23.754,7.488 13.011,0 22.398,-3.765 28.148,-11.304 3.606,-4.778 5.356,-9.922 5.246,-15.4417 h -13.531 c -0.273,3.2227 -1.438,6.1527 -3.5,8.7887 -3.367,3.739 -9.207,5.614 -17.52,5.614 -5.539,0 -9.738,-1.024 -12.585,-3.082 -2.852,-2.075 -4.274,-4.789 -4.274,-8.1761 0,-3.6992 1.867,-6.6602 5.617,-8.875 2.16,-1.3281 5.356,-2.4922 9.567,-3.4961 l 9.648,-2.3086 c 10.488,-2.5 17.516,-4.9102 21.086,-7.2461 5.57,-3.6602 8.359,-9.4219 8.359,-17.2734 0,-7.586 -2.918,-14.1407 -8.746,-19.6602 -5.832,-5.5156 -14.703,-8.2695 -26.632,-8.2695 -12.836,0 -21.926,2.8828 -27.274,8.6328 -5.344,5.7617 -8.203,12.8789 -8.578,21.3672 h 13.769"
         style="fill:#222d62;fill-opacity:1;fill-rule:nonzero;stroke:none"
         transform="matrix(0.13333333,0,0,-0.13333333,0,114.29333)" />
      <path
         id="path34"
         d="m 612.582,153.367 h 14.32 v -43.609 c 3.403,4.297 6.453,7.312 9.157,9.07 4.617,3.02 10.371,4.531 17.269,4.531 12.363,0 20.742,-4.328 25.149,-12.968 2.386,-4.727 3.586,-11.2816 3.586,-19.6605 V 36.0547 H 667.34 v 53.7187 c 0,6.2618 -0.797,10.8516 -2.391,13.7736 -2.601,4.668 -7.484,7 -14.644,7 -5.946,0 -11.328,-2.039 -16.157,-6.121 -4.828,-4.094 -7.246,-11.8088 -7.246,-23.1643 v -45.207 h -14.32 V 153.367"
         style="fill:#222d62;fill-opacity:1;fill-rule:nonzero;stroke:none"
         transform="matrix(0.13333333,0,0,-0.13333333,0,114.29333)" />
      <path
         id="path35"
         d="m 703.23,120.898 h 14.563 V 36.0547 H 703.23 Z m 0,32.071 h 14.563 V 136.727 H 703.23 v 16.242"
         style="fill:#222d62;fill-opacity:1;fill-rule:nonzero;stroke:none"
         transform="matrix(0.13333333,0,0,-0.13333333,0,114.29333)" />
      <path
         id="path36"
         d="m 792.145,54.082 c 4.449,5.5977 6.668,13.9649 6.668,25.1055 0,6.7969 -0.985,12.6289 -2.954,17.5117 -3.73,9.3948 -10.543,14.0938 -20.445,14.0938 -9.953,0 -16.769,-4.973 -20.441,-14.8867 -1.969,-5.3086 -2.957,-12.0508 -2.957,-20.2149 0,-6.582 0.988,-12.1758 2.957,-16.7969 3.722,-8.8047 10.539,-13.2109 20.441,-13.2109 6.711,0 12.285,2.8008 16.731,8.3984 z m -53.899,66.816 h 14.012 V 109.59 c 2.871,3.879 6.008,6.875 9.414,8.996 4.836,3.18 10.531,4.773 17.074,4.773 9.684,0 17.899,-3.703 24.656,-11.101 6.754,-7.406 10.133,-17.9728 10.133,-31.7111 0,-18.5742 -4.875,-31.836 -14.617,-39.793 -6.184,-5.0391 -13.375,-7.5625 -21.574,-7.5625 -6.446,0 -11.856,1.4063 -16.223,4.2188 -2.558,1.5937 -5.406,4.3164 -8.547,8.1953 V 2.07031 H 738.246 V 120.898"
         style="fill:#222d62;fill-opacity:1;fill-rule:nonzero;stroke:none"
         transform="matrix(0.13333333,0,0,-0.13333333,0,114.29333)" />
      <path
         id="path37"
         d="m 1071.08,19.6172 h -13.61 V 138.203 h 13.61 V 19.6172"
         style="fill:#222d62;fill-opacity:1;fill-rule:nonzero;stroke:none"
         transform="matrix(0.13333333,0,0,-0.13333333,0,114.29333)" />
      <path
         id="path38"
         d="m 1390.13,136.895 c -3.47,1.64 -8.24,2.46 -14.3,2.46 h -31.29 V 98.8477 h 31.29 c 7.06,0 12.79,1.5113 17.19,4.5393 4.4,3.019 6.59,8.351 6.59,16 0,8.59 -3.15,14.422 -9.48,17.508 z m -61.43,16.074 h 52.32 c 10.34,0 18.69,-2.93 25.05,-8.797 6.36,-5.863 9.54,-14.106 9.54,-24.707 0,-9.133 -2.84,-17.074 -8.51,-23.84 -5.67,-6.7695 -14.36,-10.1484 -26.05,-10.1484 h -36.51 V 36.0547 H 1328.7 V 152.969"
         style="fill:#222d62;fill-opacity:1;fill-rule:nonzero;stroke:none"
         transform="matrix(0.13333333,0,0,-0.13333333,0,114.29333)" />
      <path
         id="path39"
         d="M 1434.39,121.289 H 1448 V 106.57 c 1.12,2.864 3.85,6.352 8.2,10.461 4.35,4.11 9.37,6.172 15.05,6.172 0.26,0 0.71,-0.027 1.35,-0.078 0.63,-0.059 1.72,-0.164 3.26,-0.32 v -15.121 c -0.85,0.16 -1.63,0.265 -2.35,0.312 -0.72,0.059 -1.5,0.078 -2.35,0.078 -7.21,0 -12.76,-2.312 -16.63,-6.961 -3.88,-4.6403 -5.81,-9.9802 -5.81,-16.0349 V 36.0547 h -14.33 v 85.2343"
         style="fill:#222d62;fill-opacity:1;fill-rule:nonzero;stroke:none"
         transform="matrix(0.13333333,0,0,-0.13333333,0,114.29333)" />
      <path
         id="path40"
         d="m 1541.14,56.1328 c 3.49,7.1875 5.23,15.1758 5.23,23.9727 0,7.9492 -1.26,14.414 -3.78,19.3984 -3.98,7.8401 -10.86,11.7581 -20.61,11.7581 -8.66,0 -14.95,-3.332 -18.89,-10.012 -3.93,-6.6797 -5.9,-14.7383 -5.9,-24.1719 0,-9.0625 1.97,-16.6093 5.9,-22.6523 3.94,-6.0391 10.18,-9.0547 18.73,-9.0547 9.39,0 15.83,3.582 19.32,10.7617 z m 8.89,56.6482 c 7.54,-7.312 11.3,-18.074 11.3,-32.2849 0,-13.7305 -3.32,-25.0664 -9.95,-34.0313 -6.64,-8.9531 -16.94,-13.4375 -30.9,-13.4375 -11.65,0 -20.89,3.9649 -27.74,11.8946 -6.85,7.9219 -10.27,18.5625 -10.27,31.9258 0,14.3125 3.6,25.7113 10.82,34.1873 7.22,8.485 16.92,12.727 29.08,12.727 10.91,0 20.13,-3.664 27.66,-10.981"
         style="fill:#222d62;fill-opacity:1;fill-rule:nonzero;stroke:none"
         transform="matrix(0.13333333,0,0,-0.13333333,0,114.29333)" />
      <path
         id="path41"
         d="m 1628.06,102.512 c -4.32,5.093 -9.84,7.633 -16.55,7.633 -10.03,0 -16.89,-4.715 -20.58,-14.1606 -1.96,-5.0469 -2.93,-11.6485 -2.93,-19.8242 0,-9.5977 1.94,-16.9024 5.82,-21.9219 3.88,-5.0117 9.09,-7.5195 15.63,-7.5195 10.24,0 17.45,4.6367 21.62,13.9257 2.32,5.2539 3.49,11.3868 3.49,18.3868 0,10.5585 -2.17,18.3789 -6.5,23.4807 z m -1.75,15.359 c 2.69,-1.855 5.44,-4.562 8.25,-8.113 v 10.738 h 13.2 V 42.9766 c 0,-10.8203 -1.58,-19.3633 -4.75,-25.625 C 1637.09,5.78125 1625.9,0 1609.45,0 c -9.14,0 -16.84,2.05859 -23.08,6.17188 -6.24,4.10942 -9.73,10.54692 -10.47,19.29692 h 14.56 c 0.69,-3.8204 2.06,-6.7696 4.12,-8.836 3.22,-3.1875 8.29,-4.7773 15.2,-4.7773 10.92,0 18.07,3.875 21.45,11.6211 2,4.5703 2.93,12.7031 2.77,24.4336 -2.86,-4.3477 -6.29,-7.5899 -10.31,-9.7071 -4.01,-2.1172 -9.32,-3.1836 -15.93,-3.1836 -9.2,0 -17.25,3.2735 -24.14,9.8321 -6.9,6.5429 -10.35,17.3828 -10.35,32.5117 0,14.2695 3.48,25.4097 10.43,33.4297 6.95,8.008 15.34,12.012 25.17,12.012 6.66,0 12.47,-1.645 17.44,-4.934"
         style="fill:#222d62;fill-opacity:1;fill-rule:nonzero;stroke:none"
         transform="matrix(0.13333333,0,0,-0.13333333,0,114.29333)" />
      <path
         id="path42"
         d="m 1669.97,121.289 h 13.61 V 106.57 c 1.11,2.864 3.85,6.352 8.2,10.461 4.35,4.11 9.36,6.172 15.04,6.172 0.27,0 0.71,-0.027 1.35,-0.078 0.64,-0.059 1.73,-0.164 3.27,-0.32 v -15.121 c -0.85,0.16 -1.64,0.265 -2.35,0.312 -0.72,0.059 -1.5,0.078 -2.35,0.078 -7.22,0 -12.76,-2.312 -16.63,-6.961 -3.88,-4.6403 -5.81,-9.9802 -5.81,-16.0349 V 36.0547 h -14.33 v 85.2343"
         style="fill:#222d62;fill-opacity:1;fill-rule:nonzero;stroke:none"
         transform="matrix(0.13333333,0,0,-0.13333333,0,114.29333)" />
      <path
         id="path43"
         d="m 1781.63,85.4766 c -0.58,6.2109 -1.92,11.1718 -4.03,14.8824 -3.89,6.899 -10.39,10.344 -19.49,10.344 -6.52,0 -11.99,-2.375 -16.41,-7.117 -4.42,-4.7462 -6.76,-10.7813 -7.03,-18.1094 z m -5.13,33.4684 c 5.64,-2.843 9.94,-6.515 12.89,-11.023 2.85,-4.301 4.75,-9.3087 5.7,-15.0392 0.84,-3.9297 1.26,-10.1875 1.26,-18.7812 h -61.99 c 0.26,-8.6797 2.29,-15.6328 6.07,-20.8789 3.8,-5.2344 9.67,-7.8516 17.62,-7.8516 7.42,0 13.34,2.4727 17.76,7.4336 2.48,2.8789 4.23,6.207 5.26,9.9883 h 14.09 c -0.37,-3.125 -1.61,-6.6211 -3.7,-10.4571 -2.1,-3.8515 -4.43,-6.9921 -7.02,-9.4375 -4.31,-4.2461 -9.66,-7.1054 -16.03,-8.5937 -3.42,-0.8477 -7.29,-1.2774 -11.61,-1.2774 -10.55,0 -19.48,3.8672 -26.81,11.5821 -7.33,7.7265 -11,18.5351 -11,32.4336 0,13.6875 3.7,24.805 11.08,33.348 7.38,8.543 17.03,12.812 28.95,12.812 6.01,0 11.83,-1.426 17.48,-4.258"
         style="fill:#222d62;fill-opacity:1;fill-rule:nonzero;stroke:none"
         transform="matrix(0.13333333,0,0,-0.13333333,0,114.29333)" />
      <path
         id="path44"
         d="m 1823.02,62.793 c 0.43,-4.7774 1.65,-8.4375 3.65,-10.9766 3.68,-4.6211 10.07,-6.9258 19.17,-6.9258 5.41,0 10.18,1.1563 14.3,3.4571 4.11,2.3046 6.17,5.8789 6.17,10.707 0,3.6601 -1.65,6.4414 -4.93,8.3555 -2.11,1.164 -6.26,2.5195 -12.46,4.0625 l -11.57,2.8632 c -7.38,1.8047 -12.83,3.8164 -16.33,6.0469 -6.26,3.875 -9.38,9.2344 -9.38,16.082 0,8.0552 2.94,14.5902 8.82,19.5702 5.89,4.988 13.81,7.488 23.76,7.488 13.01,0 22.4,-3.765 28.15,-11.304 3.6,-4.778 5.35,-9.922 5.24,-15.4417 h -13.53 c -0.27,3.2227 -1.44,6.1527 -3.5,8.7887 -3.37,3.739 -9.21,5.614 -17.52,5.614 -5.54,0 -9.73,-1.024 -12.59,-3.082 -2.85,-2.075 -4.27,-4.789 -4.27,-8.1761 0,-3.6992 1.87,-6.6602 5.62,-8.875 2.16,-1.3281 5.35,-2.4922 9.57,-3.4961 l 9.65,-2.3086 c 10.48,-2.5 17.51,-4.9102 21.08,-7.2461 5.57,-3.6602 8.36,-9.4219 8.36,-17.2734 0,-7.586 -2.92,-14.1407 -8.75,-19.6602 -5.83,-5.5156 -14.7,-8.2695 -26.63,-8.2695 -12.83,0 -21.93,2.8828 -27.27,8.6328 -5.34,5.7617 -8.21,12.8789 -8.58,21.3672 h 13.77"
         style="fill:#222d62;fill-opacity:1;fill-rule:nonzero;stroke:none"
         transform="matrix(0.13333333,0,0,-0.13333333,0,114.29333)" />
      <path
         id="path45"
         d="m 1904.52,62.793 c 0.43,-4.7774 1.65,-8.4375 3.65,-10.9766 3.68,-4.6211 10.07,-6.9258 19.17,-6.9258 5.42,0 10.17,1.1563 14.3,3.4571 4.11,2.3046 6.17,5.8789 6.17,10.707 0,3.6601 -1.64,6.4414 -4.93,8.3555 -2.11,1.164 -6.26,2.5195 -12.46,4.0625 l -11.57,2.8632 c -7.39,1.8047 -12.83,3.8164 -16.34,6.0469 -6.25,3.875 -9.38,9.2344 -9.38,16.082 0,8.0552 2.95,14.5902 8.83,19.5702 5.89,4.988 13.81,7.488 23.76,7.488 13.02,0 22.39,-3.765 28.14,-11.304 3.61,-4.778 5.35,-9.922 5.25,-15.4417 h -13.53 c -0.27,3.2227 -1.43,6.1527 -3.5,8.7887 -3.37,3.739 -9.21,5.614 -17.52,5.614 -5.54,0 -9.74,-1.024 -12.59,-3.082 -2.85,-2.075 -4.27,-4.789 -4.27,-8.1761 0,-3.6992 1.87,-6.6602 5.62,-8.875 2.16,-1.3281 5.35,-2.4922 9.57,-3.4961 l 9.64,-2.3086 c 10.49,-2.5 17.52,-4.9102 21.09,-7.2461 5.57,-3.6602 8.36,-9.4219 8.36,-17.2734 0,-7.586 -2.92,-14.1407 -8.74,-19.6602 -5.83,-5.5156 -14.71,-8.2695 -26.63,-8.2695 -12.85,0 -21.94,2.8828 -27.28,8.6328 -5.35,5.7617 -8.21,12.8789 -8.58,21.3672 h 13.77"
         style="fill:#222d62;fill-opacity:1;fill-rule:nonzero;stroke:none"
         transform="matrix(0.13333333,0,0,-0.13333333,0,114.29333)" />
      <path
         id="path46"
         d="m 2218.48,19.6172 h -13.6 V 138.203 h 13.6 V 19.6172"
         style="fill:#222d62;fill-opacity:1;fill-rule:nonzero;stroke:none"
         transform="matrix(0.13333333,0,0,-0.13333333,0,114.29333)" />
      <path
         id="path47"
         d="m 2537.54,136.895 c -3.47,1.64 -8.25,2.46 -14.3,2.46 h -31.29 V 98.8477 h 31.29 c 7.06,0 12.79,1.5113 17.18,4.5393 4.4,3.019 6.61,8.351 6.61,16 0,8.59 -3.17,14.422 -9.49,17.508 z m -61.43,16.074 h 52.31 c 10.34,0 18.7,-2.93 25.06,-8.797 6.36,-5.863 9.54,-14.106 9.54,-24.707 0,-9.133 -2.84,-17.074 -8.51,-23.84 -5.68,-6.7695 -14.36,-10.1484 -26.06,-10.1484 h -36.5 V 36.0547 h -15.84 V 152.969"
         style="fill:#222d62;fill-opacity:1;fill-rule:nonzero;stroke:none"
         transform="matrix(0.13333333,0,0,-0.13333333,0,114.29333)" />
      <path
         id="path48"
         d="m 2581.8,121.289 h 13.61 V 106.57 c 1.11,2.864 3.84,6.352 8.2,10.461 4.34,4.11 9.35,6.172 15.04,6.172 0.26,0 0.71,-0.027 1.35,-0.078 0.64,-0.059 1.72,-0.164 3.26,-0.32 v -15.121 c -0.84,0.16 -1.63,0.265 -2.35,0.312 -0.71,0.059 -1.49,0.078 -2.34,0.078 -7.22,0 -12.76,-2.312 -16.64,-6.961 -3.87,-4.6403 -5.81,-9.9802 -5.81,-16.0349 V 36.0547 h -14.32 v 85.2343"
         style="fill:#222d62;fill-opacity:1;fill-rule:nonzero;stroke:none"
         transform="matrix(0.13333333,0,0,-0.13333333,0,114.29333)" />
      <path
         id="path49"
         d="m 2688.54,56.1328 c 3.49,7.1875 5.23,15.1758 5.23,23.9727 0,7.9492 -1.26,14.414 -3.77,19.3984 -3.99,7.8401 -10.86,11.7581 -20.62,11.7581 -8.66,0 -14.95,-3.332 -18.89,-10.012 -3.93,-6.6797 -5.9,-14.7383 -5.9,-24.1719 0,-9.0625 1.97,-16.6093 5.9,-22.6523 3.94,-6.0391 10.18,-9.0547 18.73,-9.0547 9.39,0 15.83,3.582 19.32,10.7617 z m 8.9,56.6482 c 7.53,-7.312 11.3,-18.074 11.3,-32.2849 0,-13.7305 -3.32,-25.0664 -9.97,-34.0313 -6.63,-8.9531 -16.93,-13.4375 -30.89,-13.4375 -11.64,0 -20.89,3.9649 -27.74,11.8946 -6.85,7.9219 -10.27,18.5625 -10.27,31.9258 0,14.3125 3.6,25.7113 10.82,34.1873 7.23,8.485 16.91,12.727 29.09,12.727 10.9,0 20.12,-3.664 27.66,-10.981"
         style="fill:#222d62;fill-opacity:1;fill-rule:nonzero;stroke:none"
         transform="matrix(0.13333333,0,0,-0.13333333,0,114.29333)" />
      <path
         id="path50"
         d="m 2734.85,62.793 c 0.43,-4.7774 1.65,-8.4375 3.65,-10.9766 3.68,-4.6211 10.07,-6.9258 19.17,-6.9258 5.42,0 10.18,1.1563 14.3,3.4571 4.11,2.3046 6.17,5.8789 6.17,10.707 0,3.6601 -1.64,6.4414 -4.93,8.3555 -2.11,1.164 -6.26,2.5195 -12.45,4.0625 l -11.58,2.8632 c -7.38,1.8047 -12.83,3.8164 -16.33,6.0469 -6.25,3.875 -9.39,9.2344 -9.39,16.082 0,8.0552 2.95,14.5902 8.84,19.5702 5.89,4.988 13.8,7.488 23.75,7.488 13.02,0 22.39,-3.765 28.14,-11.304 3.61,-4.778 5.36,-9.922 5.25,-15.4417 h -13.53 c -0.27,3.2227 -1.43,6.1527 -3.5,8.7887 -3.37,3.739 -9.21,5.614 -17.51,5.614 -5.55,0 -9.74,-1.024 -12.59,-3.082 -2.85,-2.075 -4.28,-4.789 -4.28,-8.1761 0,-3.6992 1.88,-6.6602 5.62,-8.875 2.17,-1.3281 5.35,-2.4922 9.57,-3.4961 l 9.65,-2.3086 c 10.48,-2.5 17.52,-4.9102 21.08,-7.2461 5.58,-3.6602 8.36,-9.4219 8.36,-17.2734 0,-7.586 -2.92,-14.1407 -8.74,-19.6602 -5.83,-5.5156 -14.71,-8.2695 -26.63,-8.2695 -12.84,0 -21.93,2.8828 -27.28,8.6328 -5.35,5.7617 -8.21,12.8789 -8.58,21.3672 h 13.77"
         style="fill:#222d62;fill-opacity:1;fill-rule:nonzero;stroke:none"
         transform="matrix(0.13333333,0,0,-0.13333333,0,114.29333)" />
      <path
         id="path51"
         d="m 2860.53,54.082 c 4.45,5.5977 6.66,13.9649 6.66,25.1055 0,6.7969 -0.97,12.6289 -2.95,17.5117 -3.73,9.3948 -10.54,14.0938 -20.45,14.0938 -9.95,0 -16.76,-4.973 -20.44,-14.8867 -1.97,-5.3086 -2.95,-12.0508 -2.95,-20.2149 0,-6.582 0.98,-12.1758 2.95,-16.7969 3.73,-8.8047 10.54,-13.2109 20.44,-13.2109 6.71,0 12.29,2.8008 16.74,8.3984 z m -53.89,66.816 h 14 V 109.59 c 2.87,3.879 6.01,6.875 9.41,8.996 4.85,3.18 10.54,4.773 17.08,4.773 9.68,0 17.9,-3.703 24.65,-11.101 6.76,-7.406 10.14,-17.9728 10.14,-31.7111 0,-18.5742 -4.87,-31.836 -14.62,-39.793 -6.18,-5.0391 -13.37,-7.5625 -21.57,-7.5625 -6.45,0 -11.86,1.4063 -16.22,4.2188 -2.56,1.5937 -5.41,4.3164 -8.56,8.1953 V 2.07031 h -14.31 V 120.898"
         style="fill:#222d62;fill-opacity:1;fill-rule:nonzero;stroke:none"
         transform="matrix(0.13333333,0,0,-0.13333333,0,114.29333)" />
      <path
         id="path52"
         d="m 2956.25,85.4766 c -0.58,6.2109 -1.92,11.1718 -4.03,14.8824 -3.88,6.899 -10.39,10.344 -19.49,10.344 -6.52,0 -11.99,-2.375 -16.42,-7.117 -4.41,-4.7462 -6.75,-10.7813 -7.02,-18.1094 z m -5.13,33.4684 c 5.64,-2.843 9.94,-6.515 12.89,-11.023 2.85,-4.301 4.75,-9.3087 5.7,-15.0392 0.84,-3.9297 1.26,-10.1875 1.26,-18.7812 h -61.99 c 0.26,-8.6797 2.28,-15.6328 6.07,-20.8789 3.79,-5.2344 9.66,-7.8516 17.61,-7.8516 7.42,0 13.35,2.4727 17.77,7.4336 2.48,2.8789 4.23,6.207 5.26,9.9883 h 14.09 c -0.37,-3.125 -1.61,-6.6211 -3.7,-10.4571 -2.1,-3.8515 -4.43,-6.9921 -7.01,-9.4375 -4.33,-4.2461 -9.67,-7.1054 -16.04,-8.5937 -3.43,-0.8477 -7.29,-1.2774 -11.61,-1.2774 -10.55,0 -19.48,3.8672 -26.82,11.5821 -7.32,7.7265 -10.98,18.5351 -10.98,32.4336 0,13.6875 3.69,24.805 11.07,33.348 7.38,8.543 17.03,12.812 28.95,12.812 6.01,0 11.83,-1.426 17.48,-4.258"
         style="fill:#222d62;fill-opacity:1;fill-rule:nonzero;stroke:none"
         transform="matrix(0.13333333,0,0,-0.13333333,0,114.29333)" />
      <path
         id="path53"
         d="m 2989.53,121.289 h 13.6 V 106.57 c 1.11,2.864 3.85,6.352 8.2,10.461 4.35,4.11 9.36,6.172 15.04,6.172 0.27,0 0.72,-0.027 1.35,-0.078 0.64,-0.059 1.73,-0.164 3.26,-0.32 v -15.121 c -0.84,0.16 -1.63,0.265 -2.34,0.312 -0.72,0.059 -1.5,0.078 -2.35,0.078 -7.21,0 -12.76,-2.312 -16.64,-6.961 -3.86,-4.6403 -5.81,-9.9802 -5.81,-16.0349 V 36.0547 h -14.31 v 85.2343"
         style="fill:#222d62;fill-opacity:1;fill-rule:nonzero;stroke:none"
         transform="matrix(0.13333333,0,0,-0.13333333,0,114.29333)" />
      <path
         id="path54"
         d="m 3043.4,120.898 h 14.56 V 36.0547 h -14.56 z m 0,32.071 h 14.56 v -16.242 h -14.56 v 16.242"
         style="fill:#222d62;fill-opacity:1;fill-rule:nonzero;stroke:none"
         transform="matrix(0.13333333,0,0,-0.13333333,0,114.29333)" />
      <path
         id="path55"
         d="m 3082.48,145.09 h 14.48 v -23.801 h 13.61 V 109.59 h -13.61 V 53.9648 c 0,-2.9804 1.01,-4.9609 3.03,-5.9765 1.11,-0.5781 2.96,-0.8711 5.57,-0.8711 0.69,0 1.43,0.0195 2.23,0.0508 0.79,0.039 1.72,0.1289 2.78,0.2617 v -11.375 c -1.64,-0.4805 -3.36,-0.8203 -5.14,-1.0352 -1.77,-0.2148 -3.7,-0.3242 -5.77,-0.3242 -6.68,0 -11.22,1.7227 -13.6,5.1406 -2.39,3.4258 -3.58,7.8672 -3.58,13.3282 V 109.59 h -11.55 v 11.699 h 11.55 v 23.801"
         style="fill:#222d62;fill-opacity:1;fill-rule:nonzero;stroke:none"
         transform="matrix(0.13333333,0,0,-0.13333333,0,114.29333)" />
      <path
         id="path56"
         d="m 3178.18,121.289 h 15.84 c -2.02,-5.469 -6.51,-17.941 -13.46,-37.4218 -5.19,-14.6484 -9.54,-26.5938 -13.05,-35.832 -8.27,-21.7344 -14.1,-34.9883 -17.49,-39.76567 -3.39,-4.76172 -9.22,-7.15625 -17.5,-7.15625 -2.01,0 -3.56,0.07813 -4.64,0.24219 -1.09,0.15625 -2.43,0.44922 -4.02,0.87109 V 15.2813 c 2.49,-0.6915 4.29,-1.1094 5.4,-1.2696 1.12,-0.164 2.09,-0.2422 2.94,-0.2422 2.65,0 4.6,0.4414 5.84,1.3086 1.24,0.8789 2.3,1.9532 3.15,3.2227 0.26,0.4219 1.21,2.5859 2.85,6.5117 1.64,3.918 2.83,6.8281 3.57,8.7344 l -31.51,87.7421 h 16.24 l 22.84,-69.4257 23,69.4257"
         style="fill:#222d62;fill-opacity:1;fill-rule:nonzero;stroke:none"
         transform="matrix(0.13333333,0,0,-0.13333333,0,114.29333)" />
    </g>
  </g>
</svg>
